<svg width="1276" height="330" viewBox="0 0 1276 330" fill="none" xmlns="http://www.w3.org/2000/svg">
<path d="M792.792 301V99.4H744.984L691.992 184.648L639 99.4H591.192V301H634.68V170.248L690.84 255.496H691.992L748.728 169.384V301H792.792ZM923.303 136.264C931.367 136.264 937.895 138.472 942.887 142.888C947.879 147.304 950.375 153.832 950.375 162.472C950.375 166.696 949.703 170.632 948.359 174.28C947.207 177.736 945.191 181.384 942.311 185.224C939.623 188.872 936.071 192.808 931.655 197.032C927.239 201.064 921.863 205.672 915.527 210.856L848.423 265.864V301H997.607V262.696H909.767L942.599 237.352C951.431 230.44 959.207 224.104 965.927 218.344C972.647 212.392 978.119 206.44 982.343 200.488C986.759 194.536 990.023 188.296 992.135 181.768C994.439 175.048 995.591 167.464 995.591 159.016C995.591 149.608 993.959 141.064 990.695 133.384C987.623 125.704 983.015 119.176 976.871 113.8C970.919 108.232 963.623 104.008 954.983 101.128C946.535 98.056 936.935 96.52 926.183 96.52C917.159 96.52 909.095 97.48 901.991 99.4C894.887 101.128 888.359 103.816 882.407 107.464C876.647 110.92 871.175 115.24 865.991 120.424C860.999 125.608 856.007 131.56 851.015 138.28L882.119 163.336C889.607 154.12 896.327 147.304 902.279 142.888C908.423 138.472 915.431 136.264 923.303 136.264ZM1251.64 301L1165.24 97.96H1124.34L1037.94 301H1083.16L1101.59 255.784H1186.84L1205.27 301H1251.64ZM1171 216.616H1117.43L1144.21 151.24L1171 216.616Z" fill="#333333"/>
<line x1="0.986388" y1="132.5" x2="551.986" y2="131.5" stroke="#333333" stroke-width="15"/>
</svg>
