<svg width="78" height="96" viewBox="0 0 78 96" fill="none" xmlns="http://www.w3.org/2000/svg">
<path d="M51.7955 54.0049C47.8226 54.0049 44.7139 56.7482 41.6972 59.4032C40.6614 60.3584 39.5669 61.2531 38.4197 62.0827C37.4 62.8701 36.1475 63.3286 34.8405 63.393C32.693 63.393 30.2132 61.9207 27.0686 57.7248C26.9943 57.6273 26.9085 57.5384 26.813 57.4598C24.4201 55.1336 22.022 54.2601 19.6035 54.2601C16.0244 54.2601 12.4452 56.1593 8.7178 58.1076C5.9414 59.5798 3.09341 61.0521 0.219863 61.5428C0.148279 62.647 0.0715831 63.7463 0 64.8456C3.48201 64.3549 6.89754 62.544 10.2262 60.7822C13.4321 59.094 16.5561 57.4549 19.4859 57.4549C20.4385 57.4561 21.3803 57.6474 22.2517 58.0166C23.1231 58.3858 23.9051 58.9248 24.5479 59.5995C28.4594 64.8014 31.7062 66.6565 34.6564 66.6565C36.6454 66.6565 38.4861 65.8075 40.2808 64.5757C41.5339 63.6635 42.7291 62.6802 43.86 61.6312C46.3398 59.4424 48.9015 57.185 51.9898 57.185C53.3965 57.2165 54.7644 57.6337 55.932 58.3873C61.0859 64.7671 64.7929 67 67.9784 67C70.0645 67 71.9308 66.0185 73.8277 64.6297C74.7634 63.9328 75.648 63.1574 76.5735 62.3673L77.3455 61.7048C77.516 60.2031 77.7341 58.7112 78 57.2291C76.7115 58.1665 75.556 59.1627 74.4618 60.1148C73.5567 60.8951 72.6926 61.641 71.9052 62.2299C70.6985 63.1231 69.4867 63.7365 68.1062 63.7365C65.6775 63.7365 62.717 61.8569 58.2738 56.3311C58.1366 56.157 57.9623 56.0131 57.7625 55.909C55.5638 54.5496 53.6157 54 51.8364 54L51.7955 54.0049Z" fill="white"/>
<path d="M74.5826 74.5761C73.6818 75.4162 72.8217 76.2193 72.038 76.8533C68.73 79.495 65.422 79.8543 58.4701 70.5132C58.3338 70.3242 58.1603 70.1676 57.9612 70.0535C50.9024 65.3355 46.3629 69.6679 42.0116 73.8206C40.9793 74.8491 39.8901 75.8141 38.7494 76.7106C35.7518 78.9402 32.4438 79.2784 27.4258 72.0137C27.3545 71.9065 27.2688 71.8104 27.1714 71.7284C21.2831 65.5257 15.3491 68.9018 9.16061 72.4258C6.16814 74.127 3.10443 75.8706 0 76.2034C0 77.3764 0 78.551 0 79.7275C3.6388 79.2995 7.20126 77.2707 10.6874 75.2894C15.8071 72.373 20.7081 69.5833 24.9372 74.0108C31.4667 83.4047 36.1742 82.6598 40.5917 79.3682C41.8383 78.3948 43.0279 77.3451 44.1541 76.2246C47.5995 72.933 51.1976 69.4988 56.1698 72.7269C64.6688 84.081 69.2135 83.2621 73.9821 79.4474C74.9134 78.6972 75.7939 77.8624 76.715 77.0118L77 76.7476C76.9593 75.3211 76.9389 73.8893 76.944 72.4681C76.0941 73.1391 75.3205 73.8629 74.5826 74.5761Z" fill="white"/>
<path d="M74.747 88.558C73.836 89.402 72.9661 90.2039 72.1734 90.8369C68.8278 93.4746 65.4821 93.828 58.4511 84.5066C58.313 84.3195 58.1375 84.1648 57.9364 84.0529C50.7973 79.3368 46.206 83.6678 41.8052 87.8089C40.7626 88.8373 39.6608 89.8009 38.5059 90.6945C35.4742 92.9207 32.1285 93.2636 27.0535 86.0047C26.9786 85.9 26.8923 85.8044 26.7961 85.7199C20.8408 79.5267 14.8392 82.8976 8.58031 86.4162C5.77511 87.9988 2.91844 89.5814 0 90.1089C0.113237 91.2589 0.236769 92.4037 0.365448 93.5537C3.67507 92.8996 6.92807 91.0743 10.109 89.286C15.2871 86.3793 20.2438 83.5939 24.5211 88.0094C31.1249 97.3941 35.886 96.645 40.3537 93.3585C41.6146 92.3866 42.8177 91.3385 43.9567 90.2197C47.4413 86.9332 51.0804 83.5043 56.1091 86.7275C64.7049 98.0641 69.3013 97.2781 74.1242 93.4376C75.0661 92.6938 75.9566 91.8551 76.8882 91.011C77.2485 90.6787 77.6191 90.3358 78 89.9929C77.8936 88.6635 77.7907 87.3288 77.6912 85.9889C76.6309 86.8224 75.6683 87.7087 74.747 88.558Z" fill="white"/>
<path d="M48.2722 7.59226C49.0095 5.13298 50.6002 3.02405 52.7529 1.65181C54.9057 0.279568 57.4763 -0.264122 59.994 0.120339C62.5117 0.504801 64.8078 1.79167 66.4617 3.74522C68.1157 5.69876 69.0167 8.18819 68.9998 10.7575C68.9771 11.1597 68.8028 11.5379 68.5125 11.8146C68.2223 12.0913 67.8382 12.2454 67.4389 12.2454C67.0396 12.2454 66.6555 12.0913 66.3653 11.8146C66.075 11.5379 65.9007 11.1597 65.878 10.7575C65.8805 8.95584 65.2437 7.21282 64.0829 5.84391C62.9221 4.47499 61.3139 3.57063 59.5495 3.29451C57.7851 3.01839 55.981 3.38875 54.4638 4.33855C52.9465 5.28836 51.8164 6.75486 51.278 8.47262C51.2748 8.57215 51.2612 8.67107 51.2376 8.76776V48.3329C51.2497 48.5473 51.2183 48.7619 51.1453 48.9636C51.0723 49.1652 50.9593 49.3498 50.8132 49.5058C50.667 49.6619 50.4909 49.7862 50.2955 49.8712C50.1001 49.9562 49.8895 50 49.6767 50C49.464 50 49.2534 49.9562 49.058 49.8712C48.8626 49.7862 48.6864 49.6619 48.5403 49.5058C48.3942 49.3498 48.2812 49.1652 48.2082 48.9636C48.1352 48.7619 48.1038 48.5473 48.1159 48.3329C48.1058 44.1245 47.778 8.46753 48.2722 7.59226Z" fill="white"/>
<path d="M21.2422 7.56339C21.9873 5.11065 23.5824 3.00953 25.7366 1.64324C27.8908 0.27695 30.4606 -0.263473 32.9773 0.120536C35.4939 0.504546 37.7898 1.7874 39.4461 3.73513C41.1024 5.68286 42.0088 8.16568 41.9999 10.7308C41.9772 11.1333 41.8026 11.5118 41.5118 11.7886C41.221 12.0655 40.8361 12.2197 40.436 12.2197C40.036 12.2197 39.6511 12.0655 39.3603 11.7886C39.0695 11.5118 38.8948 11.1333 38.8721 10.7308C38.8746 8.9279 38.2366 7.1837 37.0735 5.81385C35.9104 4.44401 34.2991 3.53903 32.5313 3.26272C30.7635 2.98641 28.9559 3.35702 27.4357 4.30747C25.9155 5.25793 24.7832 6.72542 24.2437 8.44435C24.2405 8.54395 24.2269 8.64294 24.2033 8.7397V48.3318C24.2154 48.5463 24.1839 48.761 24.1108 48.9629C24.0376 49.1647 23.9244 49.3493 23.778 49.5055C23.6316 49.6617 23.4551 49.7861 23.2593 49.8711C23.0635 49.9562 22.8525 50 22.6393 50C22.4262 50 22.2152 49.9562 22.0194 49.8711C21.8236 49.7861 21.6471 49.6617 21.5007 49.5055C21.3543 49.3493 21.2411 49.1647 21.1679 48.9629C21.0948 48.761 21.0633 48.5463 21.0754 48.3318V21.1698C21.0754 19.4232 20.8228 8.31195 21.2422 7.56339Z" fill="white"/>
<path d="M49.5375 22.9976C49.9329 22.9758 50.3046 22.8086 50.5766 22.5301C50.8485 22.2516 51 21.8831 51 21.5C51 21.1169 50.8485 20.7484 50.5766 20.4699C50.3046 20.1914 49.9329 20.0242 49.5375 20.0024H22.6385C22.4279 19.9908 22.2169 20.021 22.0187 20.091C21.8205 20.161 21.6391 20.2694 21.4857 20.4096C21.3323 20.5498 21.2101 20.7189 21.1266 20.9064C21.0431 21.0938 21 21.2958 21 21.5C21 21.7042 21.0431 21.9062 21.1266 22.0936C21.2101 22.2811 21.3323 22.4502 21.4857 22.5904C21.6391 22.7306 21.8205 22.839 22.0187 22.909C22.2169 22.979 22.4279 23.0092 22.6385 22.9976H49.5375Z" fill="white"/>
<path d="M49.5375 33.9976C49.9329 33.9758 50.3046 33.8086 50.5766 33.5301C50.8485 33.2516 51 32.8831 51 32.5C51 32.1169 50.8485 31.7484 50.5766 31.4699C50.3046 31.1914 49.9329 31.0242 49.5375 31.0024H22.6385C22.4279 30.9908 22.2169 31.021 22.0187 31.091C21.8205 31.161 21.6391 31.2694 21.4857 31.4096C21.3323 31.5498 21.2101 31.7189 21.1266 31.9064C21.0431 32.0938 21 32.2958 21 32.5C21 32.7042 21.0431 32.9062 21.1266 33.0936C21.2101 33.2811 21.3323 33.4502 21.4857 33.5904C21.6391 33.7306 21.8205 33.839 22.0187 33.909C22.2169 33.979 22.4279 34.0092 22.6385 33.9976H49.5375Z" fill="white"/>
<path d="M49.5375 44.9666C49.9329 44.9451 50.3046 44.7795 50.5766 44.504C50.8485 44.2284 51 43.8636 51 43.4845C51 43.1054 50.8485 42.7406 50.5766 42.465C50.3046 42.1894 49.9329 42.0239 49.5375 42.0024H22.6385C22.4279 41.9909 22.2169 42.0208 22.0187 42.0901C21.8205 42.1594 21.6391 42.2667 21.4857 42.4054C21.3323 42.5442 21.2101 42.7114 21.1266 42.897C21.0431 43.0825 21 43.2825 21 43.4845C21 43.6865 21.0431 43.8865 21.1266 44.072C21.2101 44.2576 21.3323 44.4248 21.4857 44.5636C21.6391 44.7023 21.8205 44.8096 22.0187 44.8789C22.2169 44.9482 22.4279 44.9781 22.6385 44.9666H49.5375Z" fill="white"/>
</svg>
