<svg width="108" height="108" viewBox="0 0 108 108" fill="none" xmlns="http://www.w3.org/2000/svg">
<path d="M87.7552 24.4852L36.0794 76.1231L28.7984 83.3987L20.2905 87.6931L24.5881 79.1914L32.1132 71.6718L83.4286 20.4116C82.9006 19.66 82.4596 18.851 82.1143 18L30.2697 69.8122L22.605 77.4539C22.4956 77.5575 22.405 77.6795 22.3375 77.8142L23.5006 78.3953L22.3375 77.8142L16.1906 90.0176C16.0744 90.2069 16.009 90.423 16.0009 90.6449C15.9927 90.8669 16.042 91.0871 16.1441 91.2844C16.2999 91.5911 16.5704 91.8241 16.897 91.9329C17.2236 92.0417 17.5799 92.0175 17.8887 91.8656L30.0662 85.7174C30.2263 85.6536 30.371 85.5565 30.4907 85.4326L37.917 78.0118L90 25.9729C89.244 25.4731 88.488 24.9908 87.7552 24.4852ZM33.4159 68.22C32.2528 69.9633 30.5082 70.5444 29.3451 71.7067C30.5082 70.5444 32.2528 69.9633 33.4159 68.22ZM35.7421 78.0989C37.4867 76.9367 38.6498 76.3556 39.8129 74.6122C38.6498 76.3556 37.4867 76.9367 35.7421 78.0989Z" fill="white" stroke="white" stroke-miterlimit="10"/>
<path d="M69.323 32.3986C69.1966 32.2722 69.0466 32.172 68.8815 32.1036C68.7164 32.0352 68.5395 32 68.3608 32C68.1821 32 68.0051 32.0352 67.84 32.1036C67.6749 32.172 67.5249 32.2722 67.3986 32.3986C67.2722 32.5249 67.172 32.6749 67.1036 32.84C67.0352 33.0051 67 33.1821 67 33.3608C67 33.5395 67.0352 33.7164 67.1036 33.8815C67.172 34.0466 67.2722 34.1966 67.3986 34.323L73.677 40.6014C73.9322 40.8566 74.2783 41 74.6392 41C75.0001 41 75.3462 40.8566 75.6014 40.6014C75.8566 40.3462 76 40.0001 76 39.6392C76 39.2783 75.8566 38.9322 75.6014 38.677L69.323 32.3986Z" fill="white" stroke="white" stroke-miterlimit="10"/>
<path d="M40.323 61.3986C40.0678 61.1434 39.7217 61 39.3608 61C38.9999 61 38.6538 61.1434 38.3986 61.3986C38.1434 61.6538 38 61.9999 38 62.3608C38 62.7217 38.1434 63.0678 38.3986 63.323L44.677 69.6014C44.9322 69.8566 45.2783 70 45.6392 70C46.0001 70 46.3462 69.8566 46.6014 69.6014C46.8566 69.3462 47 69.0001 47 68.6392C47 68.2783 46.8566 67.9322 46.6014 67.677L40.323 61.3986Z" fill="white" stroke="white" stroke-miterlimit="10"/>
<path d="M91.8885 1.41801L106.617 16.1463C106.862 16.3933 107 16.7274 107 17.0756C107 17.4237 106.862 17.7578 106.617 18.0048L99.4385 25.1715C97.6178 26.983 95.1539 28 92.5854 28C90.017 28 87.5531 26.983 85.7324 25.1715L82.8285 22.2676C81.0169 20.4469 80 17.983 80 15.4146C80 12.8461 81.0169 10.3822 82.8285 8.56148L90.001 1.38316C90.248 1.13774 90.5821 1 90.9303 1C91.2784 1 91.6125 1.13774 91.8595 1.38316L91.8885 1.41801ZM103.823 17.0988L90.9477 4.1999L84.7044 10.4432C83.3869 11.7704 82.6475 13.5647 82.6475 15.4349C82.6475 17.305 83.3869 19.0994 84.7044 20.4266L87.6082 23.3304C88.9355 24.648 90.7298 25.3874 92.6 25.3874C94.4701 25.3874 96.2644 24.648 97.5917 23.3304L103.823 17.0988Z" fill="white" stroke="white" stroke-miterlimit="10"/>
<path d="M46.6851 85.2027L38.0072 76.5281C37.4722 76.9909 36.8989 77.4073 36.2934 77.7731L44.457 85.9337L29.9807 100.41C27.0739 103.297 23.1432 104.916 19.0463 104.916C14.9493 104.916 11.0186 103.297 8.11188 100.41L7.54059 99.8394C4.65341 96.9337 3.03305 93.0045 3.03305 88.909C3.03305 84.8136 4.65341 80.8843 7.54059 77.9787L22.0227 63.5077L29.9064 71.3885C30.4777 70.9944 31.049 70.6232 31.6203 70.1664L22.7996 61.3033C22.6047 61.1091 22.3407 61 22.0655 61C21.7903 61 21.5263 61.1091 21.3314 61.3033L6.11809 76.5281C2.84021 79.8201 1 84.2757 1 88.9204C1 93.5651 2.84021 98.0208 6.11809 101.313L6.68938 101.884C9.98253 105.16 14.4398 107 19.0863 107C23.7327 107 28.19 105.16 31.4832 101.884L46.6908 86.6875C46.7892 86.5904 46.8673 86.4746 46.9204 86.3469C46.9734 86.2192 47.0005 86.0822 47 85.9439C46.9995 85.8057 46.9713 85.6689 46.9172 85.5416C46.8632 85.4143 46.7842 85.2991 46.6851 85.2027Z" fill="white" stroke="white" stroke-miterlimit="10"/>
<path d="M82 19L24 78" stroke="white" stroke-miterlimit="10"/>
</svg>
