<svg width="159" height="129" viewBox="0 0 159 129" fill="none" xmlns="http://www.w3.org/2000/svg">
<path d="M81.2401 115.744H81.8909H95.4576H97.9576V113.244V100.717V99.9513V98.2175V97.4513V84.9247V82.4247H95.4576H81.8909H81.2401H79.3909H78.7401H65.1734H62.6734V84.9247V97.4513V98.2175V99.9513V100.717V113.244V115.744H65.1734H78.7401H79.3909H81.2401ZM44.0927 117.521V89.6631L79.9657 60.0572L115.844 89.7757V117.521V126.002H44.0927V117.521Z" stroke="white" stroke-width="5"/>
<path d="M149.815 72.6196L133.042 58.813L128.953 55.4473V60.7432V109.822H126.546V83.8588V82.6811L125.638 81.9312L110.65 69.5525V51.5261V49.0261H108.15H98.4963H95.9963V51.5261V57.4384L81.581 45.4041L79.9879 44.0741L78.3874 45.3953L34.2782 81.8059L33.3697 82.5559V83.7339V109.822H30.6923V60.223V54.9295L26.6041 58.2923L9.18575 72.6203L3.5188 65.7266L30.1127 43.8655L31.0252 43.1154V41.9342V18.9886H39.9236V30.4909V35.7408L43.9994 32.4317L79.9639 3.2324L155.486 65.7205L149.815 72.6196Z" stroke="white" stroke-width="5"/>
</svg>
