<svg width="120" height="120" viewBox="0 0 120 120" fill="none" xmlns="http://www.w3.org/2000/svg">
<path d="M119.733 117.019L77.2383 43.4905C76.9286 42.9547 76.3885 42.593 75.775 42.5122C75.1636 42.4366 74.5501 42.6451 74.1113 43.0795L50.8606 66.3302L41.7329 57.3611V40.5095C41.7329 39.9826 41.5245 39.4777 41.1509 39.1049L34.8471 32.8011L39.4462 28.2043C40.2226 27.4286 40.2226 26.17 39.4462 25.3951L16.9645 2.9112C13.0839 -0.969423 6.79256 -0.97089 2.9112 2.90974C-0.970157 6.79036 -0.970157 13.0817 2.90974 16.9631L25.3943 39.4447C26.17 40.2211 27.4278 40.2211 28.2043 39.4447L32.0372 35.6111L37.7583 41.3322V58.1962C37.7605 58.7253 37.9755 59.2309 38.3557 59.6L48.0543 69.124L24.43 92.76C23.6551 93.5364 23.6551 94.7957 24.4315 95.5707C24.6818 95.8217 24.9951 96.0007 25.3386 96.0895L117.516 119.936C117.679 119.979 117.846 120 118.015 120C119.111 119.999 120.001 119.108 120 118.011C119.999 117.663 119.908 117.32 119.733 117.019ZM26.7989 35.2295L5.7204 14.1531C3.39261 11.8239 3.39261 8.04819 5.72187 5.7204C8.05039 3.39114 11.8261 3.39188 14.1546 5.72113L35.2317 26.7975L26.7989 35.2295ZM29.6984 93.113L75.091 47.7189L113.921 114.9L29.6984 93.113Z" fill="white"/>
<path d="M39.3661 89.4563C39.0916 90.5182 39.7286 91.6035 40.7919 91.8787L101.141 107.49C101.303 107.532 101.471 107.552 101.64 107.552C102.737 107.551 103.625 106.66 103.625 105.563C103.623 104.657 103.012 103.868 102.136 103.64L41.787 88.0289C40.7252 87.7552 39.6405 88.3937 39.3661 89.4563Z" fill="white"/>
</svg>
