<svg width="118" height="138" viewBox="0 0 118 138" fill="none" xmlns="http://www.w3.org/2000/svg">
<path d="M36 74L3 41V135H97L48 86M20.1866 82.3881V117.463H55.2612L20.1866 82.3881Z" stroke="white" stroke-width="5" stroke-miterlimit="2.6131" stroke-linecap="round" stroke-linejoin="round"/>
<path d="M86 27.9231L80.6667 43H69L62 27.9231C62 20.8462 67.8602 15 74.9542 15C81.7398 15 86 20.8462 86 27.9231Z" stroke="white" stroke-width="5" stroke-miterlimit="2.6131" stroke-linecap="round" stroke-linejoin="round"/>
<path d="M62.0069 30.3464L56.8483 34.0335L38.0345 73.0559L35 113L67.469 43.5587L62.0069 30.3464ZM79 7.60894V16.8268C77.4828 16.2123 76.269 15.905 74.4483 15.905C72.931 15.905 71.4138 16.2123 69.8966 16.8268V7.60894C69.8966 5.15084 72.0207 3 74.4483 3C77.1793 3 79 5.15084 79 7.60894Z" stroke="white" stroke-width="5" stroke-miterlimit="2.6131" stroke-linecap="round" stroke-linejoin="round"/>
<path d="M87.5514 29L92.7944 32.7472L111.916 72.4052L115 113L82 42.7398" stroke="white" stroke-width="5" stroke-miterlimit="2.6131" stroke-linecap="round" stroke-linejoin="round"/>
</svg>
