<svg width="103" height="118" viewBox="0 0 103 118" fill="none" xmlns="http://www.w3.org/2000/svg">
<mask id="path-1-inside-1" fill="white">
<path d="M101.367 50.5222L45.8143 91.7476L38.0568 97.5177L39.1909 97.8161L6.7514 53.7775L2.06605 47.4216L1.76874 48.527L57.3212 7.28501L65.0732 1.55912L63.9445 1.26066L96.3841 45.3213L101.069 51.6828C101.692 52.534 103.129 51.6828 102.495 50.8483L70.0558 6.78206L65.3705 0.426094C65.2595 0.244779 65.0836 0.112895 64.879 0.0574176C64.6743 0.0019398 64.4562 0.0270599 64.2694 0.12764L8.6894 41.3641L0.937384 47.1231C0.756766 47.2346 0.625389 47.4111 0.570124 47.6166C0.514859 47.822 0.539883 48.0409 0.640077 48.2285L33.0796 92.3003L37.765 98.6618C37.8769 98.842 38.0527 98.9731 38.257 99.0285C38.4613 99.0838 38.679 99.0594 38.8661 98.9602L94.4185 57.7183L102.198 51.9537C103.046 51.3236 102.22 49.8866 101.367 50.5222Z"/>
</mask>
<path d="M101.367 50.5222L45.8143 91.7476L38.0568 97.5177L39.1909 97.8161L6.7514 53.7775L2.06605 47.4216L1.76874 48.527L57.3212 7.28501L65.0732 1.55912L63.9445 1.26066L96.3841 45.3213L101.069 51.6828C101.692 52.534 103.129 51.6828 102.495 50.8483L70.0558 6.78206L65.3705 0.426094C65.2595 0.244779 65.0836 0.112895 64.879 0.0574176C64.6743 0.0019398 64.4562 0.0270599 64.2694 0.12764L8.6894 41.3641L0.937384 47.1231C0.756766 47.2346 0.625389 47.4111 0.570124 47.6166C0.514859 47.822 0.539883 48.0409 0.640077 48.2285L33.0796 92.3003L37.765 98.6618C37.8769 98.842 38.0527 98.9731 38.257 99.0285C38.4613 99.0838 38.679 99.0594 38.8661 98.9602L94.4185 57.7183L102.198 51.9537C103.046 51.3236 102.22 49.8866 101.367 50.5222Z" fill="white"/>
<path d="M101.367 50.5222L697.298 853.558L697.996 853.04L698.693 852.521L101.367 50.5222ZM45.8143 91.7476L-550.117 -711.288L-550.56 -710.959L-551.002 -710.63L45.8143 91.7476ZM38.0568 97.5177L-558.76 -704.86L-2226.53 535.647L-216.424 1064.6L38.0568 97.5177ZM39.1909 97.8161L-215.29 1064.89L2524.68 1785.9L844.334 -495.265L39.1909 97.8161ZM6.7514 53.7775L811.894 -539.304L811.79 -539.445L811.686 -539.586L6.7514 53.7775ZM2.06605 47.4216L807.001 -545.941L-424.536 -2216.6L-963.615 -212.31L2.06605 47.4216ZM1.76874 48.527L-963.912 -211.205L-1710.69 2565.3L597.854 851.448L1.76874 48.527ZM57.3212 7.28501L-536.811 -797.082L-537.789 -796.36L-538.765 -795.636L57.3212 7.28501ZM65.0732 1.55912L659.206 805.926L2335.7 -432.389L320.717 -965.212L65.0732 1.55912ZM63.9445 1.26066L319.588 -965.51L-2423.72 -1690.92L-741.34 594.149L63.9445 1.26066ZM96.3841 45.3213L-708.901 638.21L-708.849 638.28L-708.797 638.35L96.3841 45.3213ZM101.069 51.6828L908.392 -538.427L907.324 -539.888L906.251 -541.346L101.069 51.6828ZM102.495 50.8483L-702.825 643.688L-698.544 649.503L-694.18 655.256L102.495 50.8483ZM70.0558 6.78206L875.376 -586.058L875.184 -586.32L874.991 -586.581L70.0558 6.78206ZM65.3705 0.426094L-787.448 522.634L-765.033 559.239L-739.565 593.789L65.3705 0.426094ZM64.2694 0.12764L-409.727 -880.399L-473.453 -846.095L-531.574 -802.973L64.2694 0.12764ZM8.6894 41.3641L-587.154 -761.736L-587.409 -761.548L-587.663 -761.359L8.6894 41.3641ZM0.937384 47.1231L526.072 898.143L562.721 875.528L597.29 849.846L0.937384 47.1231ZM0.640077 48.2285L-881.402 519.399L-847.442 582.973L-804.716 641.02L0.640077 48.2285ZM33.0796 92.3003L-772.276 685.092L-772.189 685.211L-772.101 685.329L33.0796 92.3003ZM37.765 98.6618L887.343 -428.801L866.444 -462.464L842.946 -494.367L37.765 98.6618ZM38.8661 98.9602L507.396 982.408L574.22 946.968L634.952 901.881L38.8661 98.9602ZM94.4185 57.7183L-500.94 -745.742L-501.304 -745.472L-501.667 -745.202L94.4185 57.7183ZM102.198 51.9537L697.556 855.414L698.106 855.007L698.656 854.598L102.198 51.9537ZM-494.565 -752.513L-550.117 -711.288L641.746 894.783L697.298 853.558L-494.565 -752.513ZM-551.002 -710.63L-558.76 -704.86L634.873 899.896L642.631 894.125L-551.002 -710.63ZM-216.424 1064.6L-215.29 1064.89L293.672 -869.262L292.538 -869.56L-216.424 1064.6ZM844.334 -495.265L811.894 -539.304L-798.391 646.859L-765.952 690.897L844.334 -495.265ZM811.686 -539.586L807.001 -545.941L-802.869 640.785L-798.184 647.141L811.686 -539.586ZM-963.615 -212.31L-963.912 -211.205L967.45 308.259L967.747 307.154L-963.615 -212.31ZM597.854 851.448L653.407 810.206L-538.765 -795.636L-594.317 -754.394L597.854 851.448ZM651.454 811.652L659.206 805.926L-529.059 -802.808L-536.811 -797.082L651.454 811.652ZM320.717 -965.212L319.588 -965.51L-191.699 968.032L-190.57 968.33L320.717 -965.212ZM-741.34 594.149L-708.901 638.21L901.669 -547.567L869.229 -591.628L-741.34 594.149ZM-708.797 638.35L-704.112 644.711L906.251 -541.346L901.565 -547.707L-708.797 638.35ZM-706.253 641.793C-323.584 1165.32 292.177 1100.54 609.636 913.618C777.3 814.897 972.488 630.73 1060.1 339.963C1159.75 9.27522 1076.78 -319.445 899.17 -553.56L-694.18 655.256C-871.477 421.559 -954.383 93.258 -854.849 -237.062C-767.344 -527.461 -572.436 -711.313 -405.13 -809.823C-88.3869 -996.322 526.345 -1061.1 908.392 -538.427L-706.253 641.793ZM907.816 -541.992L875.376 -586.058L-735.264 599.622L-702.825 643.688L907.816 -541.992ZM874.991 -586.581L870.306 -592.937L-739.565 593.789L-734.879 600.145L874.991 -586.581ZM918.189 -521.782C785.145 -739.056 573.766 -898.094 326.482 -965.118L-196.724 965.233C-443.599 898.32 -654.626 739.546 -787.448 522.634L918.189 -521.782ZM326.482 -965.118C79.1122 -1032.17 -184.356 -1001.72 -409.727 -880.399L538.266 880.654C313.269 1001.77 50.2364 1032.17 -196.724 965.233L326.482 -965.118ZM-531.574 -802.973L-587.154 -761.736L604.533 844.464L660.113 803.228L-531.574 -802.973ZM-587.663 -761.359L-595.415 -755.6L597.29 849.846L605.042 844.087L-587.663 -761.359ZM-524.197 -803.896C-741.793 -669.626 -899.072 -457.646 -965.111 -212.115L966.251 307.349C900.323 552.468 743.306 764.095 526.072 898.143L-524.197 -803.896ZM-965.111 -212.115C-1031.13 33.337 -1001.32 294.906 -881.402 519.399L882.682 -422.942C1002.4 -198.824 1032.16 62.3071 966.251 307.349L-965.111 -212.115ZM-804.716 641.02L-772.276 685.092L838.435 -500.492L805.996 -544.563L-804.716 641.02ZM-772.101 685.329L-767.416 691.691L842.946 -494.367L838.261 -500.729L-772.101 685.329ZM-811.813 626.125C-678.557 840.758 -468.575 997.737 -223.346 1064.2L299.86 -866.147C544.681 -799.791 754.311 -643.074 887.343 -428.801L-811.813 626.125ZM-223.346 1064.2C21.9362 1130.69 283.151 1101.33 507.396 982.408L-429.664 -784.487C-205.794 -903.216 54.9865 -932.518 299.86 -866.147L-223.346 1064.2ZM634.952 901.881L690.504 860.639L-501.667 -745.202L-557.22 -703.961L634.952 901.881ZM689.777 861.179L697.556 855.414L-493.16 -751.507L-500.94 -745.742L689.777 861.179ZM698.656 854.598C1204.65 478.587 1156.39 -123.919 968.301 -449.488C869.408 -620.66 683.432 -819.32 388.979 -907.54C56.7572 -1007.08 -267.662 -921.511 -495.96 -751.476L698.693 852.521C470.823 1022.24 146.826 1107.74 -185.028 1008.32C-479.112 920.209 -664.774 721.828 -763.46 551.015C-951.139 226.163 -999.404 -375.31 -494.259 -750.691L698.656 854.598Z" fill="white" mask="url(#path-1-inside-1)"/>
<mask id="path-3-inside-2" fill="white">
<path d="M8.41315 42.5904L41.3318 86.0431L46.0116 92.2222L46.3089 91.0892L38.0504 97.0638L39.1515 97.3567L6.6293 53.6111L2.07057 47.4983L1.77326 48.6369L9.54182 42.8833C10.3897 42.2588 9.56935 40.8218 8.71046 41.4519L0.941902 47.2054C0.761283 47.3168 0.629906 47.4934 0.574641 47.6988C0.519376 47.9043 0.5444 48.1232 0.644594 48.3108L33.1888 92.0453L37.7476 98.1692C37.8609 98.3556 38.0417 98.4908 38.2521 98.5464C38.4624 98.6021 38.6861 98.5738 38.8762 98.4676L47.1348 92.493C47.3227 92.3812 47.4592 92.1997 47.5148 91.9877C47.5704 91.7757 47.5407 91.5502 47.4321 91.36L14.519 47.9294L9.83913 41.7503C9.20597 40.8992 7.76898 41.7393 8.41315 42.5904Z"/>
</mask>
<path d="M8.41315 42.5904L41.3318 86.0431L46.0116 92.2222L46.3089 91.0892L38.0504 97.0638L39.1515 97.3567L6.6293 53.6111L2.07057 47.4983L1.77326 48.6369L9.54182 42.8833C10.3897 42.2588 9.56935 40.8218 8.71046 41.4519L0.941902 47.2054C0.761283 47.3168 0.629906 47.4934 0.574641 47.6988C0.519376 47.9043 0.5444 48.1232 0.644594 48.3108L33.1888 92.0453L37.7476 98.1692C37.8609 98.3556 38.0417 98.4908 38.2521 98.5464C38.4624 98.6021 38.6861 98.5738 38.8762 98.4676L47.1348 92.493C47.3227 92.3812 47.4592 92.1997 47.5148 91.9877C47.5704 91.7757 47.5407 91.5502 47.4321 91.36L14.519 47.9294L9.83913 41.7503C9.20597 40.8992 7.76898 41.7393 8.41315 42.5904Z" fill="white"/>
<path d="M8.41315 42.5904L-788.968 646.067L-788.824 646.257L-788.68 646.447L8.41315 42.5904ZM41.3318 86.0431L838.504 -517.709L838.464 -517.761L838.425 -517.814L41.3318 86.0431ZM46.0116 92.2222L-751.161 695.974L491.053 2336.15L1013.27 346.033L46.0116 92.2222ZM46.3089 91.0892L1013.56 344.9L1722.17 -2355.55L-539.832 -719.12L46.3089 91.0892ZM38.0504 97.0638L-548.091 -713.145L-2255.14 521.807L-219.029 1063.45L38.0504 97.0638ZM39.1515 97.3567L-217.928 1063.75L2551.36 1800.44L841.672 -499.268L39.1515 97.3567ZM6.6293 53.6111L809.149 -543.014L808.702 -543.615L808.254 -544.216L6.6293 53.6111ZM2.07057 47.4983L803.695 -550.329L-439.906 -2217.87L-965.485 -205.159L2.07057 47.4983ZM1.77326 48.6369L-965.782 -204.021L-1682.43 2540.38L596.937 852.241L1.77326 48.6369ZM9.54182 42.8833L-583.528 -762.268L-584.576 -761.496L-585.622 -760.721L9.54182 42.8833ZM8.71046 41.4519L-582.786 -764.856L-584.623 -763.508L-586.454 -762.152L8.71046 41.4519ZM0.941902 47.2054L526.075 898.226L562.094 876L596.106 850.81L0.941902 47.2054ZM0.644594 48.3108L-881.397 519.482L-846.202 585.367L-801.61 645.293L0.644594 48.3108ZM33.1888 92.0453L-769.066 689.028L-769.009 689.103L-768.953 689.179L33.1888 92.0453ZM37.7476 98.1692L892.264 -421.255L867.9 -461.338L839.89 -498.964L37.7476 98.1692ZM38.8762 98.4676L526.547 971.495L577.619 942.966L625.017 908.677L38.8762 98.4676ZM47.1348 92.493L-464.229 -766.871L-502.718 -743.968L-539.006 -717.716L47.1348 92.493ZM47.4321 91.36L915.783 -404.59L883.609 -460.923L844.426 -512.628L47.4321 91.36ZM14.519 47.9294L-782.653 651.681L-782.564 651.799L-782.475 651.917L14.519 47.9294ZM9.83913 41.7503L-792.509 638.606L-789.936 642.065L-787.333 645.502L9.83913 41.7503ZM-788.68 646.447L-755.761 689.9L838.425 -517.814L805.506 -561.266L-788.68 646.447ZM-755.841 689.795L-751.161 695.974L843.184 -511.53L838.504 -517.709L-755.841 689.795ZM1013.27 346.033L1013.56 344.9L-920.945 -162.721L-921.242 -161.588L1013.27 346.033ZM-539.832 -719.12L-548.091 -713.145L624.191 907.273L632.45 901.298L-539.832 -719.12ZM-219.029 1063.45L-217.928 1063.75L296.231 -869.033L295.13 -869.326L-219.029 1063.45ZM841.672 -499.268L809.149 -543.014L-795.891 650.236L-763.369 693.982L841.672 -499.268ZM808.254 -544.216L803.695 -550.329L-799.554 645.326L-794.995 651.439L808.254 -544.216ZM-965.485 -205.159L-965.782 -204.021L969.329 301.294L969.626 300.156L-965.485 -205.159ZM596.937 852.241L604.706 846.488L-585.622 -760.721L-593.391 -754.967L596.937 852.241ZM602.612 848.034C1111.71 473.032 1064.05 -131.368 876.367 -457.305C777.55 -628.918 592.174 -826.99 299.245 -915.728C-30.6835 -1015.67 -353.935 -932.737 -582.786 -764.856L600.206 847.76C371.786 1015.33 48.9584 1098.21 -280.602 998.372C-573.161 909.745 -758.224 711.953 -856.834 540.7C-1044.1 215.479 -1091.78 -387.89 -583.528 -762.268L602.612 848.034ZM-586.454 -762.152L-594.222 -756.399L596.106 850.81L603.875 845.056L-586.454 -762.152ZM-524.191 -803.815C-741.787 -669.545 -899.067 -457.565 -965.106 -212.034L966.255 307.432C900.327 552.552 743.309 764.178 526.075 898.226L-524.191 -803.815ZM-965.106 -212.034C-1031.12 33.4192 -1001.32 294.989 -881.397 519.482L882.686 -422.861C1002.41 -198.742 1032.16 62.3894 966.255 307.432L-965.106 -212.034ZM-801.61 645.293L-769.066 689.028L835.443 -504.937L802.899 -548.671L-801.61 645.293ZM-768.953 689.179L-764.394 695.302L839.89 -498.964L835.331 -505.088L-768.953 689.179ZM-816.769 617.593C-682.756 838.062 -468.275 998.977 -217.391 1065.32L293.895 -868.225C544.358 -801.995 758.477 -641.351 892.264 -421.255L-816.769 617.593ZM-217.391 1065.32C33.5604 1131.68 300.26 1097.9 526.547 971.495L-448.794 -774.56C-222.888 -900.751 43.3645 -934.473 293.895 -868.225L-217.391 1065.32ZM625.017 908.677L633.276 902.702L-539.006 -717.716L-547.265 -711.741L625.017 908.677ZM558.499 951.857C784.883 817.148 948.295 599.124 1014.77 345.798L-919.739 -161.823C-853.377 -414.725 -690.237 -632.385 -464.229 -766.871L558.499 951.857ZM1014.77 345.798C1081.22 92.5567 1045.84 -176.881 915.783 -404.59L-820.919 587.31C-950.755 359.981 -986.079 90.9947 -919.739 -161.823L1014.77 345.798ZM844.426 -512.628L811.513 -556.058L-782.475 651.917L-749.562 695.348L844.426 -512.628ZM811.691 -555.823L807.011 -562.002L-787.333 645.502L-782.653 651.681L811.691 -555.823ZM812.188 -555.106C433.877 -1063.67 -172.075 -1011.9 -497.496 -820.917C-668.323 -720.665 -865.616 -533.13 -951.694 -238.125C-1048.83 94.787 -960.987 418.775 -788.968 646.067L805.794 -560.886C977.492 -334.02 1065.28 -10.456 968.244 322.086C882.274 616.72 685.26 803.939 514.79 903.981C190.085 1094.54 -414.832 1146.31 -792.509 638.606L812.188 -555.106Z" fill="white" mask="url(#path-3-inside-2)"/>
<mask id="path-5-inside-3" fill="white">
<path d="M10.34 42.3529L18.048 36.5939L16.9193 36.2954L49.6122 79.8422L54.2645 86.0379C54.8977 86.878 56.3291 86.0379 55.6905 85.1978L23.0031 41.651L18.3508 35.4553C18.238 35.276 18.0618 35.1461 17.8575 35.0918C17.6533 35.0374 17.4361 35.0627 17.2496 35.1624L9.50311 40.8994C8.66074 41.5294 9.50311 42.972 10.34 42.3308V42.3529Z"/>
</mask>
<path d="M10.34 42.3529L18.048 36.5939L16.9193 36.2954L49.6122 79.8422L54.2645 86.0379C54.8977 86.878 56.3291 86.0379 55.6905 85.1978L23.0031 41.651L18.3508 35.4553C18.238 35.276 18.0618 35.1461 17.8575 35.0918C17.6533 35.0374 17.4361 35.0627 17.2496 35.1624L9.50311 40.8994C8.66074 41.5294 9.50311 42.972 10.34 42.3308V42.3529Z" fill="white"/>
<path d="M10.34 42.3529H-989.66V2037.81L608.881 843.445L10.34 42.3529ZM18.048 36.5939L616.589 837.686L2274.57 -401.084L273.692 -930.177L18.048 36.5939ZM16.9193 36.2954L272.563 -930.476L-2512.17 -1666.85L-782.792 636.681L16.9193 36.2954ZM49.6122 79.8422L-750.099 680.228L-750.071 680.264L-750.044 680.3L49.6122 79.8422ZM54.2645 86.0379L-745.392 686.496L-744.859 687.205L-744.326 687.913L54.2645 86.0379ZM55.6905 85.1978L-744.069 685.519L-742.234 687.962L-740.385 690.395L55.6905 85.1978ZM23.0031 41.651L822.762 -558.67L822.711 -558.738L822.66 -558.807L23.0031 41.651ZM18.3508 35.4553L-828.145 567.851L-806.132 602.851L-781.306 635.913L18.3508 35.4553ZM17.2496 35.1624L-454.381 -846.634L-519.004 -812.07L-577.897 -768.454L17.2496 35.1624ZM9.50311 40.8994L-585.644 -762.717L-587.554 -761.303L-589.457 -759.879L9.50311 40.8994ZM10.34 42.3308H1010.34V-1983.5L-597.809 -751.492L10.34 42.3308ZM608.881 843.445L616.589 837.686L-580.493 -764.498L-588.201 -758.739L608.881 843.445ZM273.692 -930.177L272.563 -930.476L-238.725 1003.07L-237.596 1003.36L273.692 -930.177ZM-782.792 636.681L-750.099 680.228L849.323 -520.543L816.63 -564.09L-782.792 636.681ZM-750.044 680.3L-745.392 686.496L853.921 -514.42L849.268 -520.616L-750.044 680.3ZM-744.326 687.913C-361.755 1195.52 242.861 1136.12 562.325 948.27C731.045 849.063 928.012 663.112 1014.86 369.086C1113.27 35.935 1026.33 -290.383 851.766 -519.999L-740.385 690.395C-914.626 461.199 -1001.51 135.301 -903.21 -197.482C-816.468 -491.141 -619.779 -676.777 -451.416 -775.774C-132.666 -963.2 470.917 -1022.61 852.855 -515.837L-744.326 687.913ZM855.45 -515.123L822.762 -558.67L-776.756 641.972L-744.069 685.519L855.45 -515.123ZM822.66 -558.807L818.007 -565.002L-781.306 635.913L-776.653 642.109L822.66 -558.807ZM864.846 -496.941C730.543 -710.479 520.08 -866.085 274.939 -931.298L-239.224 1001.48C-483.956 936.377 -694.067 781.031 -828.145 567.851L864.846 -496.941ZM274.939 -931.298C29.7256 -996.53 -230.924 -966.15 -454.381 -846.634L488.88 916.959C265.796 1036.28 5.58097 1066.6 -239.224 1001.48L274.939 -931.298ZM-577.897 -768.454L-585.644 -762.717L604.65 844.516L612.397 838.779L-577.897 -768.454ZM-589.457 -759.879C-1102.43 -376.193 -1038.51 231.018 -854.129 546.576C-756.224 714.14 -571.504 912.324 -277.013 1000.47C58.1273 1100.79 387.348 1013.23 618.489 836.154L-597.809 -751.492C-367.086 -928.249 -38.2849 -1015.74 296.488 -915.539C590.613 -827.502 775.017 -629.598 872.713 -462.393C1056.67 -147.553 1120.59 458.622 608.463 841.678L-589.457 -759.879ZM-989.66 42.3308V42.3529H1010.34V42.3308H-989.66Z" fill="white" mask="url(#path-5-inside-3)"/>
<path d="M17.4758 36.1264V36.1264Z" fill="white" stroke="white" stroke-width="1000"/>
<mask id="path-8-inside-4" fill="white">
<path d="M25.6624 30.7796L33.2878 24.9874L32.1591 24.689L64.5382 68.5838L69.0694 74.7298C69.697 75.5754 71.1285 74.7298 70.4953 73.8897L38.1163 29.9948L33.5851 23.8489C33.4723 23.6695 33.2961 23.5396 33.0918 23.4853C32.8876 23.431 32.6704 23.4562 32.484 23.5559L24.8255 29.3482C23.9887 29.9838 24.8255 31.4263 25.6624 30.7796Z"/>
</mask>
<path d="M25.6624 30.7796L33.2878 24.9874L32.1591 24.689L64.5382 68.5838L69.0694 74.7298C69.697 75.5754 71.1285 74.7298 70.4953 73.8897L38.1163 29.9948L33.5851 23.8489C33.4723 23.6695 33.2961 23.5396 33.0918 23.4853C32.8876 23.431 32.6704 23.4562 32.484 23.5559L24.8255 29.3482C23.9887 29.9838 24.8255 31.4263 25.6624 30.7796Z" fill="white"/>
<path d="M25.6624 30.7796L-579.217 -765.538L-582.506 -763.039L-585.774 -760.514L25.6624 30.7796ZM33.2878 24.9874L638.167 821.305L2269.71 -418.006L288.932 -941.784L33.2878 24.9874ZM32.1591 24.689L287.803 -942.082L-2459.49 -1668.55L-772.586 618.309L32.1591 24.689ZM64.5382 68.5838L869.432 -524.836L869.357 -524.936L869.283 -525.036L64.5382 68.5838ZM69.0694 74.7298L-735.824 668.149L-734.87 669.443L-733.913 670.733L69.0694 74.7298ZM70.4953 73.8897L-734.25 667.51L-731.193 671.654L-728.094 675.766L70.4953 73.8897ZM38.1163 29.9948L-766.776 623.415L-766.703 623.515L-766.629 623.615L38.1163 29.9948ZM33.5851 23.8489L-812.91 556.246L-793.236 587.526L-771.308 617.269L33.5851 23.8489ZM32.484 23.5559L-439.146 -858.241L-508.241 -821.285L-570.737 -774.018L32.484 23.5559ZM24.8255 29.3482L-578.395 -768.226L-579.2 -767.618L-580.003 -767.008L24.8255 29.3482ZM630.542 827.097L638.167 821.305L-571.591 -771.33L-579.217 -765.538L630.542 827.097ZM288.932 -941.784L287.803 -942.082L-223.485 991.46L-222.356 991.758L288.932 -941.784ZM-772.586 618.309L-740.207 662.204L869.283 -525.036L836.904 -568.931L-772.586 618.309ZM-740.355 662.003L-735.824 668.149L873.963 -518.69L869.432 -524.836L-740.355 662.003ZM-733.913 670.733C-351.426 1186.05 258.971 1124.66 578.362 936.236C746.833 836.849 941.937 651.755 1028.87 360.46C1127.38 30.3416 1043.95 -295.972 869.085 -527.986L-728.094 675.766C-902.641 444.171 -986.019 118.279 -887.612 -211.472C-800.791 -502.398 -605.965 -687.176 -437.852 -786.352C-119.175 -974.35 490.192 -1035.74 872.052 -521.273L-733.913 670.733ZM875.241 -519.731L842.862 -563.625L-766.629 623.615L-734.25 667.51L875.241 -519.731ZM843.009 -563.425L838.478 -569.571L-771.308 617.269L-766.776 623.415L843.009 -563.425ZM880.08 -508.548C745.778 -722.084 535.316 -877.691 290.172 -942.905L-223.989 989.875C-468.724 924.77 -678.834 769.423 -812.91 556.246L880.08 -508.548ZM290.172 -942.905C44.9599 -1008.14 -215.689 -977.757 -439.146 -858.241L504.114 905.353C281.03 1024.67 20.8153 1055 -223.989 989.875L290.172 -942.905ZM-570.737 -774.018L-578.395 -768.226L628.046 826.922L635.705 821.13L-570.737 -774.018ZM-580.003 -767.008C-1085.24 -383.285 -1023.36 218.126 -839.524 533.795C-741.81 701.583 -556.241 901.667 -258.987 989.728C79.2211 1089.92 408.411 998.781 637.098 822.074L-585.774 -760.514C-357.505 -936.899 -28.7332 -1027.98 309.109 -927.892C605.996 -839.939 791.251 -640.134 888.757 -472.705C1072.17 -157.755 1134.05 442.617 629.654 825.704L-580.003 -767.008Z" fill="white" mask="url(#path-8-inside-4)"/>
<mask id="path-10-inside-5" fill="white">
<path d="M33.3209 25.2858L41.0619 19.4604L39.9333 19.162L72.6646 63.1066L77.3939 69.4571C78.0216 70.3027 79.4586 69.4571 78.8199 68.617L46.0886 24.6723L41.3592 18.3219C41.2464 18.1425 41.0702 18.0127 40.866 17.9583C40.6617 17.904 40.4446 17.9292 40.2581 18.029L32.4896 23.8544C31.6472 24.4844 32.4896 25.927 33.3209 25.2858Z"/>
</mask>
<path d="M33.3209 25.2858L41.0619 19.4604L39.9333 19.162L72.6646 63.1066L77.3939 69.4571C78.0216 70.3027 79.4586 69.4571 78.8199 68.617L46.0886 24.6723L41.3592 18.3219C41.2464 18.1425 41.0702 18.0127 40.866 17.9583C40.6617 17.904 40.4446 17.9292 40.2581 18.029L32.4896 23.8544C31.6472 24.4844 32.4896 25.927 33.3209 25.2858Z" fill="white"/>
<path d="M41.0619 19.4604L642.359 818.486L2288.82 -420.534L296.706 -947.31L41.0619 19.4604ZM39.9333 19.162L295.578 -947.609L-2472.18 -1679.49L-762.052 616.505L39.9333 19.162ZM72.6646 63.1066L874.688 -534.186L874.669 -534.211L874.65 -534.237L72.6646 63.1066ZM77.3939 69.4571L880.377 -526.544L879.898 -527.19L879.417 -527.836L77.3939 69.4571ZM78.8199 68.617L-723.166 665.96L-720.23 669.901L-717.256 673.813L78.8199 68.617ZM46.0886 24.6723L-755.935 621.965L-755.916 621.99L-755.897 622.016L46.0886 24.6723ZM41.3592 18.3219L-805.137 550.717L-784.178 584.041L-760.664 615.615L41.3592 18.3219ZM40.2581 18.029L-431.373 -863.767L-498.643 -827.788L-559.676 -782.021L40.2581 18.029ZM32.4896 23.8544L631.451 824.633L631.937 824.269L632.423 823.904L32.4896 23.8544ZM634.618 824.312L642.359 818.486L-560.235 -779.565L-567.976 -773.74L634.618 824.312ZM296.706 -947.31L295.578 -947.609L-215.711 985.933L-214.583 986.231L296.706 -947.31ZM-762.052 616.505L-729.321 660.45L874.65 -534.237L841.919 -578.181L-762.052 616.505ZM-729.359 660.399L-724.629 666.75L879.417 -527.836L874.688 -534.186L-729.359 660.399ZM-725.59 665.458C-342.676 1181.35 267.764 1118.75 585.964 931.39C754.278 832.287 950.556 646.88 1037.56 353.952C1136.29 21.5756 1050.55 -305.521 874.896 -536.579L-717.256 673.813C-892.593 443.175 -978.267 116.499 -879.653 -215.508C-792.755 -508.069 -596.757 -693.159 -428.801 -792.052C-111.316 -978.987 498.092 -1041.59 880.377 -526.544L-725.59 665.458ZM880.806 -528.726L848.074 -572.671L-755.897 622.016L-723.166 665.96L880.806 -528.726ZM848.112 -572.62L843.383 -578.971L-760.664 615.615L-755.935 621.965L848.112 -572.62ZM887.855 -514.073C753.554 -727.609 543.092 -883.217 297.948 -948.431L-216.216 984.348C-460.952 919.243 -671.061 763.894 -805.137 550.717L887.855 -514.073ZM297.948 -948.431C52.734 -1013.66 -207.916 -983.284 -431.373 -863.767L511.89 899.825C288.805 1019.14 28.5894 1049.47 -216.216 984.348L297.948 -948.431ZM-559.676 -782.021L-567.444 -776.195L632.423 823.904L640.192 818.079L-559.676 -782.021ZM-566.471 -776.924C-1079.34 -393.309 -1015.24 213.407 -831.864 528.295C-734.525 695.439 -550.201 894.401 -255.145 983.092C81.3943 1084.25 412.243 995.889 643.999 817.165L-577.357 -766.593C-346.017 -944.997 -15.5852 -1033.3 320.589 -932.249C615.279 -843.668 799.289 -644.987 896.42 -478.201C1079.38 -164.032 1143.48 441.648 631.451 824.633L-566.471 -776.924Z" fill="white" mask="url(#path-10-inside-5)"/>
<mask id="path-12-inside-6" fill="white">
<path d="M40.9847 19.6925L48.7313 13.9335L47.6301 13.635L80.4606 57.1817L85.1295 63.3774C85.7626 64.2175 87.1996 63.3774 86.5554 62.5373L53.6974 18.9906L49.0286 12.7949C48.9153 12.6083 48.7341 12.4734 48.5234 12.4187C48.3127 12.364 48.089 12.3939 47.8999 12.502L40.1534 18.2389C39.311 18.869 40.1534 20.306 40.9902 19.6704L40.9847 19.6925Z"/>
</mask>
<path d="M40.9847 19.6925L48.7313 13.9335L47.6301 13.635L80.4606 57.1817L85.1295 63.3774C85.7626 64.2175 87.1996 63.3774 86.5554 62.5373L53.6974 18.9906L49.0286 12.7949C48.9153 12.6083 48.7341 12.4734 48.5234 12.4187C48.3127 12.364 48.089 12.3939 47.8999 12.502L40.1534 18.2389C39.311 18.869 40.1534 20.306 40.9902 19.6704L40.9847 19.6925Z" fill="white"/>
<path d="M40.9847 19.6925L-929.409 -221.836L-1604.07 2488.76L637.609 822.213L40.9847 19.6925ZM48.7313 13.9335L645.356 816.454L2298.31 -412.419L310.333 -951.242L48.7313 13.9335ZM47.6301 13.635L309.232 -951.541L-2508.08 -1715.15L-750.867 615.634L47.6301 13.635ZM80.4606 57.1817L879.093 -544.637L879.025 -544.727L878.957 -544.817L80.4606 57.1817ZM85.1295 63.3774L-713.503 665.196L-713.482 665.225L-713.46 665.253L85.1295 63.3774ZM86.5554 62.5373L-711.699 664.858L-709.365 667.951L-707.007 671.026L86.5554 62.5373ZM53.6974 18.9906L-744.935 620.81L-744.746 621.06L-744.557 621.311L53.6974 18.9906ZM49.0286 12.7949L-805.807 531.694L-779.785 574.563L-749.604 614.614L49.0286 12.7949ZM47.8999 12.502L-448.275 -855.721L-499.673 -826.347L-547.246 -791.115L47.8999 12.502ZM40.1534 18.2389L-554.993 -785.378L-556.903 -783.964L-558.806 -782.54L40.1534 18.2389ZM40.9902 19.6704L1011.38 261.199L1697.11 -2493.87L-563.839 -776.685L40.9902 19.6704ZM637.609 822.213L645.356 816.454L-547.893 -788.587L-555.64 -782.828L637.609 822.213ZM310.333 -951.242L309.232 -951.541L-213.972 978.811L-212.87 979.109L310.333 -951.242ZM-750.867 615.634L-718.036 659.181L878.957 -544.817L846.127 -588.364L-750.867 615.634ZM-718.172 659.001L-713.503 665.196L883.762 -538.442L879.093 -544.637L-718.172 659.001ZM-713.46 665.253C-330.463 1173.43 274.183 1112.83 592.466 926.036C761.021 827.116 959.174 640.855 1046.1 345.185C1144.7 9.77356 1055.44 -317.308 880.118 -545.951L-707.007 671.026C-882.005 442.802 -971.204 116.141 -872.708 -218.902C-785.896 -514.205 -588.02 -700.152 -419.823 -798.861C-102.256 -985.231 501.355 -1045.83 883.719 -538.498L-713.46 665.253ZM884.81 -539.783L851.952 -583.33L-744.557 621.311L-711.699 664.858L884.81 -539.783ZM852.33 -582.828L847.661 -589.024L-749.604 614.614L-744.935 620.81L852.33 -582.828ZM903.864 -506.104C769.053 -728.193 552.658 -889.872 299.734 -955.514L-202.687 980.351C-455.19 914.818 -671.222 753.409 -805.807 531.694L903.864 -506.104ZM299.734 -955.514C46.7275 -1021.18 -221.691 -985.21 -448.275 -855.721L544.075 880.725C317.869 1010 49.8979 1045.91 -202.687 980.351L299.734 -955.514ZM-547.246 -791.115L-554.993 -785.378L635.3 821.856L643.046 816.119L-547.246 -791.115ZM-558.806 -782.54C-1071.21 -399.279 -1008.48 207.887 -823.056 524.637C-724.863 692.37 -540.452 889.367 -247.604 977.436C85.2508 1077.54 413.693 992.325 645.819 816.026L-563.839 -776.685C-332.131 -952.666 -4.10787 -1037.82 328.38 -937.829C620.861 -849.871 804.957 -653.153 902.94 -485.778C1087.95 -169.746 1150.67 436.387 639.113 819.018L-558.806 -782.54ZM-929.404 -221.858L-929.409 -221.836L1011.38 261.221L1011.38 261.199L-929.404 -221.858Z" fill="white" mask="url(#path-12-inside-6)"/>
<mask id="path-14-inside-7" fill="white">
<path d="M49.3425 13.1541L56.9293 7.30104L55.8282 7.00259L87.9593 51.2456L92.5346 57.5352C93.1512 58.3919 94.5882 57.5629 93.9605 56.7007L61.7963 12.4577L57.2211 6.1625C57.1078 5.97445 56.9256 5.83846 56.7136 5.7837C56.5015 5.72894 56.2766 5.75977 56.0869 5.86957L48.5111 11.7226C47.6797 12.3637 48.5111 13.8007 49.3425 13.1541Z"/>
</mask>
<path d="M49.3425 13.1541L56.9293 7.30104L55.8282 7.00259L87.9593 51.2456L92.5346 57.5352C93.1512 58.3919 94.5882 57.5629 93.9605 56.7007L61.7963 12.4577L57.2211 6.1625C57.1078 5.97445 56.9256 5.83846 56.7136 5.7837C56.5015 5.72894 56.2766 5.75977 56.0869 5.86957L48.5111 11.7226C47.6797 12.3637 48.5111 13.8007 49.3425 13.1541Z" fill="white"/>
<path d="M56.9293 7.30104L667.753 799.068L2262.26 -431.044L318.532 -957.875L56.9293 7.30104ZM55.8282 7.00259L317.431 -958.173L-2419.82 -1700.08L-753.304 594.629L55.8282 7.00259ZM87.9593 51.2456L-721.173 638.872L-720.946 639.184L-720.719 639.496L87.9593 51.2456ZM92.5346 57.5352L904.144 -526.665L902.684 -528.694L901.213 -530.716L92.5346 57.5352ZM93.9605 56.7007L-714.885 644.723L-714.698 644.979L-714.511 645.236L93.9605 56.7007ZM61.7963 12.4577L-747.128 600.37L-747.088 600.425L-747.049 600.48L61.7963 12.4577ZM57.2211 6.1625L-799.305 522.266L-777.052 559.197L-751.703 594.075L57.2211 6.1625ZM56.0869 5.86957L-444.975 -859.542L-502.6 -826.178L-555.293 -785.468L56.0869 5.86957ZM48.5111 11.7226L659.189 803.602L659.54 803.331L659.891 803.06L48.5111 11.7226ZM660.166 804.921L667.753 799.068L-553.895 -784.465L-561.481 -778.612L660.166 804.921ZM318.532 -957.875L317.431 -958.173L-205.775 972.178L-204.673 972.477L318.532 -957.875ZM-753.304 594.629L-721.173 638.872L897.092 -536.381L864.96 -580.624L-753.304 594.629ZM-720.719 639.496L-716.144 645.786L901.213 -530.716L896.638 -537.005L-720.719 639.496ZM-719.075 641.735C-344.74 1161.79 268.587 1112.72 596.131 922.388C768.088 822.467 963.591 636.915 1051.33 346.621C1150.01 20.1158 1069.93 -301.741 902.432 -531.835L-714.511 645.236C-881.696 415.574 -961.715 94.1436 -863.148 -231.99C-775.524 -521.913 -580.302 -707.15 -408.703 -806.863C-81.8749 -996.776 530.426 -1045.86 904.144 -526.665L-719.075 641.735ZM902.806 -531.321L870.641 -575.564L-747.049 600.48L-714.885 644.723L902.806 -531.321ZM870.721 -575.455L866.145 -581.75L-751.703 594.075L-747.128 600.37L870.721 -575.455ZM913.747 -509.941C778.873 -733.778 561.286 -896.713 306.782 -962.445L-193.355 974.012C-447.435 908.389 -664.658 745.727 -799.305 522.266L913.747 -509.941ZM306.782 -962.445C52.1963 -1028.2 -217.793 -991.077 -444.975 -859.542L557.148 871.281C330.347 1002.6 60.8068 1039.66 -193.355 974.012L306.782 -962.445ZM-555.293 -785.468L-562.869 -779.615L659.891 803.06L667.467 797.207L-555.293 -785.468ZM-562.167 -780.157C-1059.04 -396.977 -1000.19 198.141 -816.858 514.415C-719.62 682.168 -533.905 883.765 -234.94 972.211C105.485 1072.92 435.494 979.686 663.305 802.489L-564.621 -776.181C-337.225 -953.054 -7.63105 -1046.23 332.43 -945.624C631.031 -857.286 816.434 -655.967 913.465 -488.572C1096.38 -173.016 1155.23 421.063 659.189 803.602L-562.167 -780.157Z" fill="white" mask="url(#path-14-inside-7)"/>
<path d="M27.1324 66.489L28.105 67.8204L20.3025 73.5218L20.2975 73.5254L20.1622 73.6243C19.3851 74.208 18.5887 72.9906 19.1851 72.3236C19.19 72.3182 19.1949 72.3128 19.2 72.3074C19.2382 72.2668 19.2817 72.2284 19.3308 72.1928L27.1324 66.489ZM27.1324 66.489L28.1056 67.82L76.067 32.7746L83.8686 27.0819C83.9177 27.0463 83.9612 27.0079 83.9993 26.9674C84.006 26.9603 84.0126 26.953 84.019 26.9458C84.6066 26.2771 83.8123 25.063 83.0373 25.6504L82.902 25.7493L82.8982 25.752L75.0996 31.4489L75.0988 31.4495L27.1324 66.489Z" fill="white" stroke="white" stroke-width="1000"/>
<mask id="path-17-inside-8" fill="white">
<path d="M100.678 51.0744V62.4212C100.678 63.2171 100.904 64.7591 100.678 65.5163C100.342 66.6825 99.3786 67.1744 98.4756 67.8597L94.1206 71.2311L74.5259 86.397L35.7493 116.403L36.8504 116.701L3.90431 70.8995C3.45284 70.275 2.53339 69.4128 2.29665 68.6887C1.93327 67.5502 2.48934 65.146 2.51687 63.8416L2.62699 58.58L2.85272 48.0788C2.85272 47.0121 1.20101 47.0121 1.20101 48.0788L0.799096 66.9754C0.75505 68.849 0.666959 69.2304 1.61394 70.5237L8.67775 80.3284L30.0178 109.947L35.485 117.536C35.5951 117.718 35.7709 117.851 35.976 117.906C36.181 117.962 36.3996 117.936 36.5861 117.834L77.521 86.1428L97.5507 70.6397C98.773 69.6891 101.217 68.429 102.076 67.1357C102.676 66.2182 102.313 64.5214 102.313 63.4547V51.0744C102.313 50.8546 102.226 50.6437 102.071 50.4882C101.916 50.3327 101.706 50.2454 101.487 50.2454C101.268 50.2454 101.058 50.3327 100.903 50.4882C100.748 50.6437 100.661 50.8546 100.661 51.0744H100.678Z"/>
</mask>
<path d="M100.678 51.0744V62.4212C100.678 63.2171 100.904 64.7591 100.678 65.5163C100.342 66.6825 99.3786 67.1744 98.4756 67.8597L94.1206 71.2311L74.5259 86.397L35.7493 116.403L36.8504 116.701L3.90431 70.8995C3.45284 70.275 2.53339 69.4128 2.29665 68.6887C1.93327 67.5502 2.48934 65.146 2.51687 63.8416L2.62699 58.58L2.85272 48.0788C2.85272 47.0121 1.20101 47.0121 1.20101 48.0788L0.799096 66.9754C0.75505 68.849 0.666959 69.2304 1.61394 70.5237L8.67775 80.3284L30.0178 109.947L35.485 117.536C35.5951 117.718 35.7709 117.851 35.976 117.906C36.181 117.962 36.3996 117.936 36.5861 117.834L77.521 86.1428L97.5507 70.6397C98.773 69.6891 101.217 68.429 102.076 67.1357C102.676 66.2182 102.313 64.5214 102.313 63.4547V51.0744C102.313 50.8546 102.226 50.6437 102.071 50.4882C101.916 50.3327 101.706 50.2454 101.487 50.2454C101.268 50.2454 101.058 50.3327 100.903 50.4882C100.748 50.6437 100.661 50.8546 100.661 51.0744H100.678Z" fill="white"/>
<path d="M100.678 51.0744H1100.68V-948.926H100.678V51.0744ZM100.678 65.5163L-857.643 -220.179L-858.975 -215.708L-860.266 -211.225L100.678 65.5163ZM98.4756 67.8597L-506.109 -728.681L-509.907 -725.799L-513.677 -722.88L98.4756 67.8597ZM94.1206 71.2311L706.186 862.038L706.23 862.005L706.273 861.971L94.1206 71.2311ZM74.5259 86.397L686.509 877.268L686.55 877.236L686.591 877.204L74.5259 86.397ZM35.7493 116.403L-576.234 -674.468L-2166.02 555.72L-225.85 1081.58L35.7493 116.403ZM36.8504 116.701L-224.749 1081.88L2492.78 1818.43L848.646 -467.241L36.8504 116.701ZM3.90431 70.8995L815.7 -513.042L815.017 -513.992L814.332 -514.939L3.90431 70.8995ZM2.29665 68.6887L-950.36 372.737L-949.283 376.112L-948.182 379.479L2.29665 68.6887ZM2.51687 63.8416L1002.29 84.942L1002.3 84.8534L1002.3 84.7647L2.51687 63.8416ZM2.62699 58.58L-997.142 37.0889L-997.148 37.3729L-997.154 37.6569L2.62699 58.58ZM2.85272 48.0788L1002.62 69.5699L1002.85 58.8256V48.0788H2.85272ZM1.20101 48.0788L1000.97 69.3433L1001.2 58.7123V48.0788H1.20101ZM0.799096 66.9754L1000.52 90.4771L1000.55 89.3585L1000.57 88.2398L0.799096 66.9754ZM1.61394 70.5237L812.977 -514.02L810.724 -517.146L808.447 -520.255L1.61394 70.5237ZM8.67775 80.3284L-802.685 664.872L-802.676 664.884L-802.668 664.896L8.67775 80.3284ZM30.0178 109.947L841.377 -474.601L841.37 -474.61L841.363 -474.62L30.0178 109.947ZM35.485 117.536L891.572 -399.296L870.583 -434.062L846.844 -467.012L35.485 117.536ZM36.5861 117.834L516.135 995.349L585.896 957.226L648.758 908.559L36.5861 117.834ZM77.521 86.1428L-534.557 -704.655L-534.604 -704.618L-534.651 -704.582L77.521 86.1428ZM97.5507 70.6397L709.629 861.437L710.557 860.719L711.484 859.998L97.5507 70.6397ZM102.076 67.1357L935.11 620.358L937.039 617.454L938.947 614.536L102.076 67.1357ZM100.661 51.0744H-899.339V1051.07H100.661V51.0744ZM-899.322 51.0744V62.4212H1100.68V51.0744H-899.322ZM-899.322 62.4212C-899.322 84.4743 -898.582 101.93 -898.171 110.535C-897.732 119.693 -897.258 126.884 -897.137 128.719C-896.507 138.31 -897.52 123.584 -898.055 112.606C-898.649 100.39 -900.129 67.207 -898.421 24.6977C-897.53 2.48928 -895.531 -28.973 -890.552 -66.4604C-885.742 -102.675 -876.594 -156.61 -857.643 -220.179L1059 351.211C1078.01 287.453 1087.2 233.304 1092.04 196.857C1097.05 159.138 1099.07 127.425 1099.97 104.953C1101.7 61.9163 1100.2 28.1565 1099.58 15.3608C1099.02 3.80246 1097.96 -11.5051 1098.56 -2.45105C1098.66 -0.884418 1099.12 6.04997 1099.54 14.9684C1099.95 23.3341 1100.68 40.5671 1100.68 62.4212H-899.322ZM-860.266 -211.225C-793.679 -442.439 -661.055 -594.141 -567.368 -678.048C-527.39 -713.853 -493.195 -738.358 -486.293 -743.343C-465.779 -758.156 -493.751 -738.061 -506.109 -728.681L703.06 864.4C691.154 873.438 663.641 893.215 684.6 878.08C691.947 872.774 726.574 847.944 766.947 811.785C861.426 727.169 994.699 574.638 1061.62 342.258L-860.266 -211.225ZM-513.677 -722.88L-518.032 -719.509L706.273 861.971L710.628 858.6L-513.677 -722.88ZM-517.945 -719.576L-537.54 -704.41L686.591 877.204L706.186 862.038L-517.945 -719.576ZM-537.457 -704.474L-576.234 -674.468L647.732 907.274L686.509 877.268L-537.457 -704.474ZM-225.85 1081.58L-224.749 1081.88L298.45 -848.475L297.349 -848.774L-225.85 1081.58ZM848.646 -467.241L815.7 -513.042L-807.891 654.841L-774.945 700.643L848.646 -467.241ZM814.332 -514.939C788.59 -550.55 765.339 -577.37 764.578 -578.263C754.774 -589.766 768.165 -574.127 775.39 -565.341C785.071 -553.57 810.147 -522.716 838.077 -480.25C863.325 -441.861 914.597 -358.859 952.775 -242.102L-948.182 379.479C-909.886 496.599 -858.409 579.98 -832.909 618.753C-804.726 661.604 -779.347 692.848 -769.35 705.004C-761.809 714.174 -748.089 730.191 -757.586 719.048C-758.04 718.515 -781.007 692.036 -806.523 656.738L814.332 -514.939ZM954.953 -235.359C980.582 -155.058 991.209 -86.5066 996.193 -41.2428C1001.35 5.58791 1002.26 44.5751 1002.17 71.2376C1001.98 121.925 997.818 161.2 996.578 172.776C996.141 176.865 992.9 204.469 995.534 182.143C995.711 180.634 1001.17 138.018 1002.29 84.942L-997.26 42.7413C-996.154 -9.68244 -990.771 -51.5093 -990.694 -52.1648C-988.161 -73.6378 -991.523 -45.1163 -992.058 -40.1212C-993.394 -27.6393 -997.634 12.5319 -997.82 64.0314C-997.917 91.0997 -996.987 130.472 -991.792 177.657C-986.769 223.275 -976.08 292.151 -950.36 372.737L954.953 -235.359ZM1002.3 84.7647L1002.41 79.5031L-997.154 37.6569L-997.264 42.9185L1002.3 84.7647ZM1002.4 80.0711L1002.62 69.5699L-996.916 26.5877L-997.142 37.0889L1002.4 80.0711ZM1002.85 48.0788C1002.85 -234.84 882.221 -514.734 655.107 -710.3C448.706 -888.029 206.885 -952.721 2.02687 -952.721C-202.832 -952.721 -444.652 -888.029 -651.053 -710.3C-878.168 -514.734 -998.799 -234.84 -998.799 48.0788H1001.2C1001.2 330.465 880.776 609.959 653.971 805.257C447.88 982.72 206.473 1047.28 2.02687 1047.28C-202.419 1047.28 -443.826 982.72 -649.917 805.257C-876.722 609.959 -997.147 330.465 -997.147 48.0788H1002.85ZM-998.573 26.8144L-998.975 45.7109L1000.57 88.2398L1000.97 69.3433L-998.573 26.8144ZM-998.925 43.4737C-998.465 23.9345 -999.243 52.603 -999.225 69.2156C-999.198 94.2648 -998.589 163.773 -982.49 250.824C-942.341 467.916 -841.021 612.408 -805.219 661.303L808.447 -520.255C843.302 -472.654 944.192 -328.999 984.16 -112.89C1000.17 -26.3296 1000.75 42.6508 1000.77 67.0612C1000.79 83.0349 1000.04 110.953 1000.52 90.4771L-998.925 43.4737ZM-809.749 655.067L-802.685 664.872L820.04 -504.215L812.977 -514.02L-809.749 655.067ZM-802.668 664.896L-781.328 694.514L841.363 -474.62L820.023 -504.239L-802.668 664.896ZM-781.341 694.495L-775.874 702.084L846.844 -467.012L841.377 -474.601L-781.341 694.495ZM-820.602 634.367C-687.805 854.335 -475.013 1015.49 -225.626 1083.08L297.578 -847.269C546.555 -779.786 758.995 -618.899 891.572 -399.296L-820.602 634.367ZM-225.626 1083.08C23.8562 1150.7 289.623 1119.13 516.135 995.349L-442.963 -759.681C-216.824 -883.262 48.5059 -914.778 297.578 -847.269L-225.626 1083.08ZM648.758 908.559L689.693 876.867L-534.651 -704.582L-575.586 -672.891L648.758 908.559ZM689.599 876.94L709.629 861.437L-514.527 -720.158L-534.557 -704.655L689.599 876.94ZM711.484 859.998C691.37 875.642 674.788 887.277 665.896 893.412C656.652 899.789 649.374 904.566 647.349 905.895C636.594 912.953 653.48 901.948 664.239 894.593C677.331 885.645 710.813 862.469 750.222 828.847C784.418 799.672 862.245 730.077 935.11 620.358L-730.957 -486.087C-658.521 -595.159 -581.323 -664.111 -547.864 -692.657C-509.193 -725.649 -476.56 -748.208 -464.34 -756.561C-454.451 -763.32 -438.46 -773.751 -450.044 -766.148C-452.483 -764.548 -460.159 -759.506 -469.774 -752.873C-479.038 -746.483 -495.963 -734.6 -516.382 -718.718L711.484 859.998ZM938.947 614.536C1039.82 460.317 1075 314.048 1089.01 229.248C1103.29 142.755 1102.89 73.4166 1102.14 41.8088C1101.4 10.1421 1099 -17.7766 1099.46 -11.7699C1099.46 -11.6973 1099.51 -11.1565 1099.56 -10.4561C1099.61 -9.72937 1099.7 -8.59694 1099.8 -7.20559C1099.99 -4.53229 1100.3 0.00785828 1100.63 5.65996C1101.22 15.8306 1102.31 36.8232 1102.31 63.4547H-897.687C-897.687 90.353 -896.587 111.632 -895.976 122.103C-895.638 127.905 -895.313 132.599 -895.111 135.429C-894.917 138.139 -894.748 140.339 -894.738 140.472C-894.23 147.125 -896.573 119.888 -897.303 88.8936C-898.032 57.958 -898.454 -10.7172 -884.272 -96.6014C-870.37 -180.792 -835.37 -326.505 -734.794 -480.265L938.947 614.536ZM1102.31 63.4547V51.0744H-897.687V63.4547H1102.31ZM1102.31 51.0744C1102.31 -213.107 997.812 -467.26 810.537 -655.257L-606.395 756.233C-793.359 568.548 -897.687 314.816 -897.687 51.0744H1102.31ZM810.537 -655.257C623.139 -843.378 368.159 -949.755 101.487 -949.755V1050.25C-164.747 1050.25 -419.306 944.043 -606.395 756.233L810.537 -655.257ZM101.487 -949.755C-165.196 -949.755 -420.172 -843.37 -607.563 -655.257L809.369 756.233C622.289 944.035 367.732 1050.25 101.487 1050.25V-949.755ZM-607.563 -655.257C-794.819 -467.279 -899.339 -213.133 -899.339 51.0744H1100.66C1100.66 314.842 996.316 568.566 809.369 756.233L-607.563 -655.257ZM100.661 1051.07H100.678V-948.926H100.661V1051.07Z" fill="white" mask="url(#path-17-inside-8)"/>
<path d="M36.1728 117.199L36.1803 117.088L36.1803 117.087L37.4557 98.2524C37.4582 98.2144 37.4628 98.1778 37.4693 98.1425L39.1075 98.2524M36.1728 117.199C36.1038 118.227 37.6359 118.259 37.8108 117.31L36.1728 117.199ZM36.1728 117.199L37.811 117.309C37.8174 117.273 37.822 117.237 37.8246 117.199L39.0999 98.3638L39.1 98.3633L39.1075 98.2524M39.1075 98.2524C39.1765 97.2243 37.6444 97.1922 37.4695 98.1415L39.1075 98.2524Z" fill="white" stroke="white" stroke-width="1000"/>
<path d="M5.71395 75.6698L7.34619 75.7627C7.19698 76.7297 5.64553 76.7036 5.70426 75.6692M5.71395 75.6698L7.34623 75.7624C7.35087 75.7323 7.35415 75.7012 7.35597 75.6692M5.71395 75.6698L5.70426 75.6692M5.71395 75.6698L5.70426 75.6692M7.35597 75.6692L8.45177 56.4189L6.8054 56.3249M7.35597 75.6692L5.70961 75.5752L6.8054 56.3249M7.35597 75.6692L5.7096 75.5755L5.70426 75.6692M6.8054 56.3249L8.45178 56.4186L8.45711 56.3249M6.8054 56.3249C6.80723 56.2929 6.81051 56.2618 6.81515 56.2317L8.45711 56.3249M8.45711 56.3249C8.51584 55.2905 6.96439 55.2644 6.81519 56.2315L8.45711 56.3249Z" fill="white" stroke="white" stroke-width="1000"/>
<path d="M12.8617 64.6152C12.8621 64.6002 12.8629 64.5854 12.864 64.5708C12.8642 64.5686 12.8644 64.5664 12.8645 64.5642C12.9478 63.5488 14.5458 63.5658 14.5133 64.6152L14.5121 64.6596L12.8617 64.6152ZM12.8617 64.6152L12.3123 85.0204L12.3123 85.0223L12.3111 85.0648M12.8617 64.6152L14.5119 64.6663L13.9628 85.0648C13.9624 85.0792 13.9617 85.0934 13.9608 85.1074L12.3111 85.0648M12.3111 85.0648C12.284 86.1165 13.8891 86.1313 13.9606 85.1093L12.3111 85.0648Z" fill="white" stroke="white" stroke-width="1000"/>
<path d="M21.6763 74.011L20.0266 73.9684C20.0256 73.9824 20.0249 73.9966 20.0246 74.011L19.4753 94.9622L21.1257 95.0133M21.6763 74.011L21.6752 74.0536L21.6752 74.0542L21.1257 95.0133M21.6763 74.011C21.7034 72.9589 20.0971 72.9445 20.0266 73.9677L21.6763 74.011ZM21.1257 95.0133L19.4751 94.9701L19.474 95.0133C19.4415 96.0627 21.0395 96.0797 21.1229 95.0644C21.1231 95.0618 21.1233 95.0592 21.1235 95.0566C21.1245 95.0424 21.1253 95.0279 21.1257 95.0133Z" fill="white" stroke="white" stroke-width="1000"/>
<path d="M29.9347 85.6177L28.2851 85.5751C28.2841 85.5891 28.2835 85.6033 28.2831 85.6177L27.7339 106.569L29.3842 106.62M29.9347 85.6177L29.9336 85.6602L29.9336 85.6609L29.3842 106.62M29.9347 85.6177C29.9619 84.5656 28.3556 84.5512 28.2851 85.5744L29.9347 85.6177ZM29.3842 106.62L27.7337 106.577L27.7325 106.62C27.7 107.669 29.298 107.686 29.3813 106.671C29.3815 106.668 29.3817 106.666 29.3819 106.663C29.383 106.649 29.3837 106.635 29.3842 106.62Z" fill="white" stroke="white" stroke-width="1000"/>
<path d="M92.1437 72.9055L93.7949 72.9361C93.7637 73.9721 92.1437 73.962 92.1437 72.9055ZM92.1437 72.9055H93.7954L94.0756 57.737L94.0762 57.7065M92.1437 72.9055L92.1442 72.875L92.4245 57.7065H94.0762M94.0762 57.7065C94.0762 56.6501 92.4561 56.6399 92.4249 57.676L94.0762 57.7065Z" fill="white" stroke="white" stroke-width="1000"/>
<mask id="path-25-inside-9" fill="white">
<path d="M83.3402 64.0626V79.538C83.3402 79.7579 83.4272 79.9688 83.5821 80.1242C83.7369 80.2797 83.947 80.3671 84.166 80.3671C84.385 80.3671 84.5951 80.2797 84.7499 80.1242C84.9048 79.9688 84.9918 79.7579 84.9918 79.538V64.0626C84.9918 63.8427 84.9048 63.6318 84.7499 63.4763C84.5951 63.3209 84.385 63.2335 84.166 63.2335C83.947 63.2335 83.7369 63.3209 83.5821 63.4763C83.4272 63.6318 83.3402 63.8427 83.3402 64.0626Z"/>
</mask>
<path d="M83.3402 64.0626V79.538C83.3402 79.7579 83.4272 79.9688 83.5821 80.1242C83.7369 80.2797 83.947 80.3671 84.166 80.3671C84.385 80.3671 84.5951 80.2797 84.7499 80.1242C84.9048 79.9688 84.9918 79.7579 84.9918 79.538V64.0626C84.9918 63.8427 84.9048 63.6318 84.7499 63.4763C84.5951 63.3209 84.385 63.2335 84.166 63.2335C83.947 63.2335 83.7369 63.3209 83.5821 63.4763C83.4272 63.6318 83.3402 63.8427 83.3402 64.0626Z" fill="white"/>
<path d="M-916.66 64.0626V79.538H1083.34V64.0626H-916.66ZM-916.66 79.538C-916.66 343.704 -812.17 597.849 -624.906 785.847L792.071 -625.598C979.024 -437.912 1083.34 -184.189 1083.34 79.538H-916.66ZM-624.906 785.847C-437.522 973.965 -182.54 1080.37 84.166 1080.37V-919.633C350.434 -919.633 604.996 -813.406 792.071 -625.598L-624.906 785.847ZM84.166 1080.37C350.882 1080.37 605.862 973.957 793.238 785.847L-623.739 -625.598C-436.672 -813.398 -182.112 -919.633 84.166 -919.633V1080.37ZM793.238 785.847C980.484 597.868 1084.99 343.73 1084.99 79.538H-915.008C-915.008 -184.215 -810.674 -437.93 -623.739 -625.598L793.238 785.847ZM1084.99 79.538V64.0626H-915.008V79.538H1084.99ZM1084.99 64.0626C1084.99 -200.124 980.487 -454.263 793.238 -642.246L-623.739 769.199C-810.678 581.527 -915.008 327.81 -915.008 64.0626H1084.99ZM793.238 -642.246C605.853 -830.366 350.869 -936.766 84.166 -936.766V1063.23C-182.099 1063.23 -436.663 957.008 -623.739 769.199L793.238 -642.246ZM84.166 -936.766C-182.526 -936.766 -437.513 -830.374 -624.906 -642.246L792.071 769.199C604.987 957.016 350.421 1063.23 84.166 1063.23V-936.766ZM-624.906 -642.246C-812.174 -454.245 -916.66 -200.098 -916.66 64.0626H1083.34C1083.34 327.784 979.028 581.508 792.071 769.199L-624.906 -642.246Z" fill="white" mask="url(#path-25-inside-9)"/>
<path d="M74.5255 86.723C74.5255 86.9428 74.6125 87.1537 74.7674 87.3092C74.9223 87.4647 75.1323 87.552 75.3514 87.552C75.5704 87.552 75.7805 87.4647 75.9354 87.3092C76.0902 87.1537 76.1772 86.9428 76.1772 86.723V85.9048V85.9047V85.9047V72.0657V71.2475C76.1772 71.0276 76.0902 70.8168 75.9354 70.6613C75.7805 70.5058 75.5704 70.4185 75.3514 70.4185C75.1323 70.4185 74.9223 70.5058 74.7674 70.6613C74.6125 70.8168 74.5255 71.0276 74.5255 71.2475L74.5255 72.0657V85.9047L74.5255 86.723Z" fill="white" stroke="white" stroke-width="1000"/>
<path d="M66.5756 94.4941C66.7305 94.3386 66.8175 94.1278 66.8175 93.9079V93.0897V93.0897V78.6981V78.698V78.698V77.8798C66.8175 77.6599 66.7305 77.4491 66.5756 77.2936C66.4207 77.1381 66.2107 77.0508 65.9916 77.0508C65.7726 77.0508 65.5625 77.1381 65.4077 77.2936C65.2528 77.4491 65.1658 77.6599 65.1658 77.8798L65.1658 78.698L65.4077 94.4941C65.5625 94.6496 65.7726 94.7369 65.9916 94.7369C66.2107 94.7369 66.4207 94.6496 66.5756 94.4941ZM66.5756 94.4941L65.9872 93.9079L66.5756 94.4941Z" fill="white" stroke="white" stroke-width="1000"/>
<path d="M54.705 102.198C54.705 102.418 54.792 102.629 54.9468 102.785C55.1017 102.94 55.3118 103.027 55.5308 103.027C55.7499 103.027 55.9599 102.94 56.1148 102.785C56.2697 102.629 56.3567 102.418 56.3567 102.198V101.38V86.4358V86.4358V86.4358V85.6176C56.3567 85.3977 56.2697 85.1869 56.1148 85.0314C55.9599 84.8759 55.7499 84.7886 55.5308 84.7886C55.3118 84.7886 55.1017 84.8759 54.9468 85.0314C54.792 85.1869 54.705 85.3977 54.705 85.6176L54.705 86.4358L54.705 101.38L54.705 102.198Z" fill="white" stroke="white" stroke-width="1000"/>
<path d="M45.8959 108.831C45.8959 109.051 45.9829 109.261 46.1378 109.417C46.2926 109.572 46.5027 109.66 46.7217 109.66C46.9408 109.66 47.1508 109.572 47.3057 109.417C47.4606 109.261 47.5476 109.051 47.5476 108.831V108.013V93.0682V93.0682V93.0682V92.2499C47.5476 92.0301 47.4606 91.8192 47.3057 91.6637C47.1508 91.5082 46.9408 91.4209 46.7217 91.4209C46.5027 91.4209 46.2926 91.5082 46.1378 91.6637C45.9829 91.8192 45.8959 92.0301 45.8959 92.2499L45.8959 93.0682L45.8959 108.013L45.8959 108.831Z" fill="white" stroke="white" stroke-width="1000"/>
</svg>
