<svg width="115" height="115" viewBox="0 0 115 115" fill="none" xmlns="http://www.w3.org/2000/svg">
<path d="M111.417 104.172H107.468C107.468 104.133 107.468 104.095 107.468 104.056V96.5252C107.466 95.6064 107.101 94.7257 106.451 94.076C105.801 93.4263 104.92 93.0605 104.002 93.0588H103.757C103.757 93.0202 103.757 92.9816 103.757 92.943V85.4122C103.756 84.4934 103.39 83.6127 102.74 82.963C102.09 82.3133 101.21 81.9476 100.291 81.9459H96.3487V51.9641H101.982L102.921 52.7744C103.271 53.0786 103.677 53.3107 104.117 53.4576C104.557 53.6045 105.021 53.6631 105.483 53.6303C105.946 53.5974 106.397 53.4737 106.812 53.2661C107.226 53.0586 107.596 52.7713 107.899 52.4207L110.323 49.6232C110.934 48.9153 111.24 47.9942 111.174 47.0613C111.108 46.1285 110.675 45.2599 109.97 44.6455L59.9551 1.31923C59.3125 0.767319 58.4934 0.463867 57.6463 0.463867C56.7993 0.463867 55.9802 0.767319 55.3376 1.31923L14.2557 36.9153C14.9846 37.7514 15.7156 38.5981 16.4488 39.4556L16.7189 39.2241L17.0147 38.9669L57.5306 3.85952C57.5638 3.83404 57.6045 3.82045 57.6463 3.82093C57.6881 3.82093 57.7287 3.83447 57.7621 3.85952L107.77 47.1729C107.803 47.2055 107.821 47.2494 107.821 47.2951C107.821 47.3409 107.803 47.3848 107.77 47.4173L105.346 50.2148C105.33 50.2318 105.31 50.2452 105.289 50.2544C105.267 50.2636 105.244 50.2684 105.22 50.2684C105.197 50.2684 105.174 50.2636 105.152 50.2544C105.131 50.2452 105.111 50.2318 105.095 50.2148L59.9551 11.1202C59.3119 10.5695 58.4931 10.2669 57.6463 10.2669C56.7996 10.2669 55.9808 10.5695 55.3376 11.1202L6.46126 53.4561C6.44387 53.4714 6.42337 53.4828 6.40117 53.4895C6.37897 53.4962 6.35559 53.4979 6.33264 53.4947C6.30929 53.4945 6.28626 53.4892 6.26516 53.4792C6.24406 53.4692 6.22539 53.4548 6.21045 53.4368L3.78592 50.6393C3.75332 50.6057 3.73508 50.5607 3.73508 50.5139C3.73508 50.4671 3.75332 50.4221 3.78592 50.3885L10.9502 44.1825L11.3296 43.8545L9.13659 41.3206L8.81504 41.5972L1.65723 47.8546C1.29977 48.1638 1.00878 48.5423 0.801894 48.9672C0.601521 49.3689 0.481377 49.8058 0.448185 50.2534C0.412808 50.7175 0.470225 51.184 0.61708 51.6257C0.763935 52.0674 0.997288 52.4754 1.30352 52.8259L3.72804 55.6298C4.33857 56.3213 5.1943 56.7481 6.11398 56.8196H6.37123C7.21775 56.8209 8.03593 56.5146 8.67356 55.9578L13.3232 51.9319H18.9312V96.731H18.6932C17.7739 96.731 16.8922 97.0962 16.2421 97.7462C15.592 98.3963 15.2268 99.278 15.2268 100.197V104.14H3.87596C3.41912 104.14 2.96679 104.23 2.54497 104.405C2.12315 104.581 1.74016 104.838 1.41803 105.162C1.09589 105.486 0.840964 105.87 0.667902 106.293C0.49484 106.716 0.407057 107.168 0.4096 107.625V111.484C0.4113 112.403 0.777049 113.283 1.42675 113.933C2.07645 114.583 2.95715 114.949 3.87596 114.95H13.5226V111.593H3.87596C3.86136 111.594 3.84672 111.592 3.83303 111.587C3.81933 111.582 3.8069 111.574 3.79655 111.563C3.78621 111.553 3.77819 111.541 3.77303 111.527C3.76787 111.513 3.76568 111.498 3.76663 111.484V107.625C3.76663 107.596 3.77815 107.568 3.79865 107.548C3.81916 107.527 3.84696 107.516 3.87596 107.516H111.417C111.446 107.516 111.474 107.527 111.494 107.548C111.515 107.568 111.526 107.596 111.526 107.625V111.484C111.527 111.498 111.525 111.513 111.52 111.527C111.515 111.541 111.506 111.553 111.496 111.563C111.486 111.574 111.473 111.582 111.46 111.587C111.446 111.592 111.431 111.594 111.417 111.593H20.256V114.95H111.417C112.336 114.949 113.216 114.583 113.866 113.933C114.516 113.283 114.881 112.403 114.883 111.484V107.625C114.88 106.708 114.513 105.83 113.863 105.182C113.214 104.535 112.334 104.172 111.417 104.172ZM100.42 85.4122V92.943C100.42 92.9737 100.407 93.0032 100.386 93.0249C100.364 93.0466 100.335 93.0588 100.304 93.0588H96.3615V85.2965H100.304C100.335 85.2965 100.364 85.3087 100.386 85.3304C100.407 85.3521 100.42 85.3815 100.42 85.4122ZM67.0872 104.172H33.3947V100.229C33.3947 99.3101 33.0295 98.4285 32.3794 97.7784C31.7293 97.1283 30.8477 96.7631 29.9283 96.7631H29.6904V77.8943H85.6023V81.9459H74.2514C73.3326 81.9476 72.4519 82.3133 71.8022 82.963C71.1525 83.6127 70.7868 84.4934 70.7851 85.4122V92.943C70.7851 92.9816 70.7851 93.0202 70.7851 93.0588H70.5407C69.6219 93.0605 68.7412 93.4263 68.0915 94.076C67.4418 94.7257 67.076 95.6064 67.0743 96.5252V104.056C67.0743 104.095 67.0743 104.133 67.0743 104.172H67.0872ZM48.5592 51.9641V52.2021C48.5609 53.1209 48.9267 54.0016 49.5764 54.6513C50.2261 55.301 51.1068 55.6667 52.0256 55.6684H63.2671C64.1859 55.6667 65.0666 55.301 65.7163 54.6513C66.366 54.0016 66.7318 53.1209 66.7335 52.2021V51.9641H85.6023V67.1093H29.6904V51.9641H48.5592ZM63.2671 37.5263H63.0292V18.233L89.551 41.2113H66.7335V40.9734C66.7284 40.0574 66.3609 39.1806 65.7114 38.5347C65.0619 37.8888 64.1831 37.5263 63.2671 37.5263ZM63.2671 40.8769C63.2956 40.8784 63.3225 40.8905 63.3427 40.9106C63.3629 40.9308 63.3749 40.9577 63.3765 40.9862V52.2278C63.3765 52.2568 63.3649 52.2846 63.3444 52.3051C63.3239 52.3256 63.2961 52.3371 63.2671 52.3371H52.0256C51.9966 52.3371 51.9688 52.3256 51.9483 52.3051C51.9278 52.2846 51.9162 52.2568 51.9162 52.2278V40.9605C51.9178 40.932 51.9298 40.9051 51.95 40.8849C51.9702 40.8647 51.9971 40.8527 52.0256 40.8512L63.2671 40.8769ZM52.0256 37.5263C51.1074 37.5263 50.2266 37.8906 49.5768 38.5393C48.9269 39.188 48.5609 40.068 48.5592 40.9862V41.2242H25.7417L52.2635 18.233V37.5263H52.0256ZM93.0109 93.0845H81.5443V85.2965H93.0109V93.0845ZM29.6904 70.5114H85.6023V74.563H29.6904V70.5114ZM74.1421 92.9688V85.4122C74.1412 85.3973 74.1434 85.3824 74.1485 85.3684C74.1536 85.3544 74.1615 85.3416 74.1718 85.3307C74.182 85.3199 74.1944 85.3113 74.2081 85.3054C74.2218 85.2995 74.2365 85.2964 74.2514 85.2965H78.1873V93.0588H74.245C74.2306 93.058 74.2166 93.0543 74.2036 93.0481C74.1907 93.0418 74.1791 93.033 74.1695 93.0223C74.16 93.0115 74.1526 92.999 74.1479 92.9854C74.1432 92.9718 74.1412 92.9574 74.1421 92.943V92.9688ZM96.7152 96.4351V104.197H77.8464V96.4094L96.7152 96.4351ZM93.0109 81.9716H88.9529V51.9641H93.0109V81.9716ZM66.7335 48.6328V44.5812H93.4225L98.1044 48.6328H66.7335ZM57.7621 13.6605L59.6914 15.3133V37.5263H55.6398V15.3133L57.5692 13.6541C57.5989 13.6374 57.6325 13.6292 57.6665 13.6304C57.7006 13.6315 57.7336 13.6419 57.7621 13.6605ZM21.8702 44.5298H48.5592V48.5814H17.1948L21.8702 44.5298ZM22.2818 51.9384H26.3398V96.7374H22.2818V51.9384ZM18.5774 104.146V100.229C18.5774 100.199 18.5896 100.169 18.6114 100.148C18.6331 100.126 18.6625 100.114 18.6932 100.114H29.9541C29.9848 100.114 30.0142 100.126 30.0359 100.148C30.0576 100.169 30.0698 100.199 30.0698 100.229V104.172L18.5774 104.146ZM70.4378 104.03V96.5252C70.4369 96.5103 70.4391 96.4954 70.4442 96.4814C70.4493 96.4673 70.4572 96.4545 70.4675 96.4437C70.4777 96.4328 70.49 96.4242 70.5037 96.4183C70.5174 96.4124 70.5322 96.4094 70.5471 96.4094H74.4894V104.172H70.5471C70.5322 104.172 70.5174 104.169 70.5037 104.163C70.49 104.157 70.4777 104.148 70.4675 104.137C70.4572 104.127 70.4493 104.114 70.4442 104.1C70.4391 104.086 70.4369 104.071 70.4378 104.056V104.03ZM100.066 104.146V96.4094H104.008C104.039 96.4094 104.068 96.4216 104.09 96.4433C104.112 96.465 104.124 96.4945 104.124 96.5252V104.056C104.124 104.087 104.112 104.116 104.09 104.138C104.068 104.16 104.039 104.172 104.008 104.172L100.066 104.146Z" fill="white"/>
<path d="M57.1834 48.2598H58.1095C58.5546 48.2598 58.9816 48.0829 59.2964 47.7681C59.6112 47.4533 59.788 47.0264 59.788 46.5812C59.788 46.1361 59.6112 45.7091 59.2964 45.3943C58.9816 45.0796 58.5546 44.9027 58.1095 44.9027H57.1834C56.7382 44.9027 56.3113 45.0796 55.9965 45.3943C55.6817 45.7091 55.5049 46.1361 55.5049 46.5812C55.5049 47.0264 55.6817 47.4533 55.9965 47.7681C56.3113 48.0829 56.7382 48.2598 57.1834 48.2598Z" fill="white"/>
</svg>
