<svg width="120" height="120" viewBox="0 0 120 120" fill="none" xmlns="http://www.w3.org/2000/svg">
<mask id="path-1-inside-1" fill="white">
<path d="M110.323 38.7097H108.387V0H0V81.2903H7.74194V85.1613V87.0968V110.323C7.74194 113.524 10.3471 116.129 13.5484 116.129C16.7497 116.129 19.3548 113.524 19.3548 110.323V106.452C19.3548 105.383 20.2219 104.516 21.2903 104.516C22.3587 104.516 23.2258 105.383 23.2258 106.452V114.194C23.2258 117.395 25.831 120 29.0323 120H79.3548C82.5561 120 85.1613 117.395 85.1613 114.194C85.1613 110.992 82.5561 108.387 79.3548 108.387H71.6129C70.5445 108.387 69.6774 107.52 69.6774 106.452V99.72V98.7097V91.9781V89.0323V85.1613H75.4839C78.6329 85.1613 81.4084 83.6265 83.1755 81.2903H108.387V58.0645H110.323C115.659 58.0645 120 53.7232 120 48.3871C120 43.051 115.659 38.7097 110.323 38.7097ZM96.7742 38.7097V34.8387H104.516V38.7097H96.7742ZM89.0323 38.7097V42.5806H83.2258C82.5639 42.5806 81.9155 42.6484 81.2903 42.7761V34.8387H92.9032V38.7097H89.0323ZM61.9355 58.1574V50.3226H73.7439C73.6161 50.9477 73.5484 51.5961 73.5484 52.2581V73.5484H69.6774V66.7316C69.6774 62.2684 66.2748 58.6258 61.9355 58.1574ZM104.516 30.9677H92.9032V19.3548H104.516V30.9677ZM50.3226 46.4516V34.8387H61.9355V46.4516H50.3226ZM46.4516 30.9677V19.3548H58.0645V30.9677H46.4516ZM42.5806 30.9677H30.9677V19.3548H42.5806V30.9677ZM27.0968 30.9677H15.4839V19.3548H27.0968V30.9677ZM30.9677 34.8387V46.4516H19.3548V34.8387H30.9677ZM34.8387 34.8387H46.4516V46.4516H34.8387V34.8387ZM61.9355 30.9677V19.3548H73.5484V30.9677H61.9355ZM77.4194 30.9677V19.3548H89.0323V30.9677H77.4194ZM81.2903 15.4839V3.87097H92.9032V15.4839H81.2903ZM77.4194 15.4839H65.8065V3.87097H77.4194V15.4839ZM61.9355 15.4839H50.3226V3.87097H61.9355V15.4839ZM46.4516 15.4839H34.8387V3.87097H46.4516V15.4839ZM30.9677 15.4839H19.3548V3.87097H30.9677V15.4839ZM11.6129 30.9677H3.87097V19.3548H11.6129V30.9677ZM15.4839 34.8387V46.4516H3.87097V34.8387H15.4839ZM11.6129 50.3226V61.9355H3.87097V50.3226H11.6129ZM15.4839 50.3226H27.0968V61.9355H15.4839V50.3226ZM30.9677 50.3226H42.5806V61.9355H30.9677V50.3226ZM47.1252 61.9355H46.4516V50.3226H58.0645V58.5697L47.1252 61.9355ZM75.5342 46.4516H65.8065V34.8387H77.4194V44.5665C76.7052 45.1065 76.0742 45.7374 75.5342 46.4516ZM104.516 15.4839H96.7742V3.87097H104.516V15.4839ZM15.4839 3.87097V15.4839H3.87097V3.87097H15.4839ZM3.87097 65.8065H34.5445L12.8071 72.4955C10.4187 73.231 8.66516 75.1084 8.02258 77.4194H3.87097V65.8065ZM61.0103 104.516C60.5323 104.516 60.0581 104.445 59.5994 104.305L13.9452 90.2555C12.5497 89.8258 11.6129 88.5561 11.6129 87.0968V85.7168C11.9923 85.9123 12.3871 86.0845 12.8071 86.2142L58.4652 100.264C59.2936 100.517 60.149 100.645 61.0103 100.645C62.7832 100.645 64.4303 100.105 65.8065 99.1878V99.72C65.8065 102.366 63.6561 104.516 61.0103 104.516ZM71.6129 112.258H79.3548C80.4232 112.258 81.2903 113.125 81.2903 114.194C81.2903 115.262 80.4232 116.129 79.3548 116.129H29.0323C27.9639 116.129 27.0968 115.262 27.0968 114.194V106.452C27.0968 103.25 24.4916 100.645 21.2903 100.645C18.089 100.645 15.4839 103.25 15.4839 106.452V110.323C15.4839 111.391 14.6168 112.258 13.5484 112.258C12.48 112.258 11.6129 111.391 11.6129 110.323V93.4587C11.9923 93.6542 12.3871 93.8265 12.8071 93.9561L58.4652 108.006C59.2936 108.259 60.149 108.387 61.0103 108.387C62.8026 108.387 64.469 107.841 65.851 106.905C66.089 109.893 68.5665 112.258 71.6129 112.258ZM65.8065 89.0323V91.9781C65.8065 94.6239 63.6561 96.7742 61.0103 96.7742C60.5323 96.7742 60.0581 96.7026 59.5994 96.5632L13.9452 82.5136C12.5497 82.0839 11.6129 80.8142 11.6129 79.3548C11.6129 77.8955 12.5497 76.6258 13.9452 76.1961L59.5994 62.1465C60.0581 62.0071 60.5323 61.9355 61.0103 61.9355C63.6561 61.9355 65.8065 64.0858 65.8065 66.7316V73.5484H60C58.2929 73.5484 56.6787 74.2974 55.5716 75.6039C54.4665 76.9065 53.9942 78.6271 54.2748 80.3265C54.7277 83.0826 57.2845 85.1613 60.2187 85.1613H65.8065V89.0323ZM81.2903 75.4839C81.2903 78.6852 78.6852 81.2903 75.4839 81.2903H60.2187C59.1735 81.2903 58.2406 80.5897 58.0916 79.6955C57.9948 79.111 58.1477 78.5477 58.5232 78.1065C58.8948 77.669 59.431 77.4194 60 77.4194H73.5484C75.6832 77.4194 77.4194 75.6832 77.4194 73.5484V52.2581C77.4194 49.0568 80.0245 46.4516 83.2258 46.4516H89.0323V50.3226H85.1613C83.0265 50.3226 81.2903 52.0587 81.2903 54.1936V75.4839ZM84.9658 77.4194C85.0935 76.7942 85.1613 76.1458 85.1613 75.4839V65.8065H104.516V77.4194H84.9658ZM104.516 61.9355H85.1613V54.1936H89.0323V58.0645H104.516V61.9355ZM110.323 54.1936H92.9032V42.5806H110.323C113.524 42.5806 116.129 45.1858 116.129 48.3871C116.129 51.5884 113.524 54.1936 110.323 54.1936Z"/>
</mask>
<path d="M110.323 38.7097H108.387V0H0V81.2903H7.74194V85.1613V87.0968V110.323C7.74194 113.524 10.3471 116.129 13.5484 116.129C16.7497 116.129 19.3548 113.524 19.3548 110.323V106.452C19.3548 105.383 20.2219 104.516 21.2903 104.516C22.3587 104.516 23.2258 105.383 23.2258 106.452V114.194C23.2258 117.395 25.831 120 29.0323 120H79.3548C82.5561 120 85.1613 117.395 85.1613 114.194C85.1613 110.992 82.5561 108.387 79.3548 108.387H71.6129C70.5445 108.387 69.6774 107.52 69.6774 106.452V99.72V98.7097V91.9781V89.0323V85.1613H75.4839C78.6329 85.1613 81.4084 83.6265 83.1755 81.2903H108.387V58.0645H110.323C115.659 58.0645 120 53.7232 120 48.3871C120 43.051 115.659 38.7097 110.323 38.7097ZM96.7742 38.7097V34.8387H104.516V38.7097H96.7742ZM89.0323 38.7097V42.5806H83.2258C82.5639 42.5806 81.9155 42.6484 81.2903 42.7761V34.8387H92.9032V38.7097H89.0323ZM61.9355 58.1574V50.3226H73.7439C73.6161 50.9477 73.5484 51.5961 73.5484 52.2581V73.5484H69.6774V66.7316C69.6774 62.2684 66.2748 58.6258 61.9355 58.1574ZM104.516 30.9677H92.9032V19.3548H104.516V30.9677ZM50.3226 46.4516V34.8387H61.9355V46.4516H50.3226ZM46.4516 30.9677V19.3548H58.0645V30.9677H46.4516ZM42.5806 30.9677H30.9677V19.3548H42.5806V30.9677ZM27.0968 30.9677H15.4839V19.3548H27.0968V30.9677ZM30.9677 34.8387V46.4516H19.3548V34.8387H30.9677ZM34.8387 34.8387H46.4516V46.4516H34.8387V34.8387ZM61.9355 30.9677V19.3548H73.5484V30.9677H61.9355ZM77.4194 30.9677V19.3548H89.0323V30.9677H77.4194ZM81.2903 15.4839V3.87097H92.9032V15.4839H81.2903ZM77.4194 15.4839H65.8065V3.87097H77.4194V15.4839ZM61.9355 15.4839H50.3226V3.87097H61.9355V15.4839ZM46.4516 15.4839H34.8387V3.87097H46.4516V15.4839ZM30.9677 15.4839H19.3548V3.87097H30.9677V15.4839ZM11.6129 30.9677H3.87097V19.3548H11.6129V30.9677ZM15.4839 34.8387V46.4516H3.87097V34.8387H15.4839ZM11.6129 50.3226V61.9355H3.87097V50.3226H11.6129ZM15.4839 50.3226H27.0968V61.9355H15.4839V50.3226ZM30.9677 50.3226H42.5806V61.9355H30.9677V50.3226ZM47.1252 61.9355H46.4516V50.3226H58.0645V58.5697L47.1252 61.9355ZM75.5342 46.4516H65.8065V34.8387H77.4194V44.5665C76.7052 45.1065 76.0742 45.7374 75.5342 46.4516ZM104.516 15.4839H96.7742V3.87097H104.516V15.4839ZM15.4839 3.87097V15.4839H3.87097V3.87097H15.4839ZM3.87097 65.8065H34.5445L12.8071 72.4955C10.4187 73.231 8.66516 75.1084 8.02258 77.4194H3.87097V65.8065ZM61.0103 104.516C60.5323 104.516 60.0581 104.445 59.5994 104.305L13.9452 90.2555C12.5497 89.8258 11.6129 88.5561 11.6129 87.0968V85.7168C11.9923 85.9123 12.3871 86.0845 12.8071 86.2142L58.4652 100.264C59.2936 100.517 60.149 100.645 61.0103 100.645C62.7832 100.645 64.4303 100.105 65.8065 99.1878V99.72C65.8065 102.366 63.6561 104.516 61.0103 104.516ZM71.6129 112.258H79.3548C80.4232 112.258 81.2903 113.125 81.2903 114.194C81.2903 115.262 80.4232 116.129 79.3548 116.129H29.0323C27.9639 116.129 27.0968 115.262 27.0968 114.194V106.452C27.0968 103.25 24.4916 100.645 21.2903 100.645C18.089 100.645 15.4839 103.25 15.4839 106.452V110.323C15.4839 111.391 14.6168 112.258 13.5484 112.258C12.48 112.258 11.6129 111.391 11.6129 110.323V93.4587C11.9923 93.6542 12.3871 93.8265 12.8071 93.9561L58.4652 108.006C59.2936 108.259 60.149 108.387 61.0103 108.387C62.8026 108.387 64.469 107.841 65.851 106.905C66.089 109.893 68.5665 112.258 71.6129 112.258ZM65.8065 89.0323V91.9781C65.8065 94.6239 63.6561 96.7742 61.0103 96.7742C60.5323 96.7742 60.0581 96.7026 59.5994 96.5632L13.9452 82.5136C12.5497 82.0839 11.6129 80.8142 11.6129 79.3548C11.6129 77.8955 12.5497 76.6258 13.9452 76.1961L59.5994 62.1465C60.0581 62.0071 60.5323 61.9355 61.0103 61.9355C63.6561 61.9355 65.8065 64.0858 65.8065 66.7316V73.5484H60C58.2929 73.5484 56.6787 74.2974 55.5716 75.6039C54.4665 76.9065 53.9942 78.6271 54.2748 80.3265C54.7277 83.0826 57.2845 85.1613 60.2187 85.1613H65.8065V89.0323ZM81.2903 75.4839C81.2903 78.6852 78.6852 81.2903 75.4839 81.2903H60.2187C59.1735 81.2903 58.2406 80.5897 58.0916 79.6955C57.9948 79.111 58.1477 78.5477 58.5232 78.1065C58.8948 77.669 59.431 77.4194 60 77.4194H73.5484C75.6832 77.4194 77.4194 75.6832 77.4194 73.5484V52.2581C77.4194 49.0568 80.0245 46.4516 83.2258 46.4516H89.0323V50.3226H85.1613C83.0265 50.3226 81.2903 52.0587 81.2903 54.1936V75.4839ZM84.9658 77.4194C85.0935 76.7942 85.1613 76.1458 85.1613 75.4839V65.8065H104.516V77.4194H84.9658ZM104.516 61.9355H85.1613V54.1936H89.0323V58.0645H104.516V61.9355ZM110.323 54.1936H92.9032V42.5806H110.323C113.524 42.5806 116.129 45.1858 116.129 48.3871C116.129 51.5884 113.524 54.1936 110.323 54.1936Z" stroke="white" stroke-width="10" mask="url(#path-1-inside-1)"/>
</svg>
