<svg width="85" height="81" viewBox="0 0 85 81" fill="none" xmlns="http://www.w3.org/2000/svg">
<path d="M62.8692 0H1.6193C1.40417 0.00145405 1.19168 0.0426908 0.995003 0.121144C0.798327 0.199596 0.621671 0.31359 0.475998 0.456056C0.166455 0.759153 -0.00363353 1.15673 0.000136122 1.56839V79.4316C-0.00551261 79.8436 0.164834 80.2418 0.475998 80.5439C0.621202 80.6869 0.797764 80.8013 0.994545 80.8798C1.19133 80.9583 1.40405 80.9992 1.6193 81H82.4907C82.7061 80.9999 82.919 80.9593 83.1159 80.8807C83.3128 80.8022 83.4893 80.6875 83.634 80.5439C83.9452 80.2418 84.1155 79.8436 84.1099 79.4316V1.56839C84.1136 1.15673 83.9436 0.759153 83.634 0.456056C83.4883 0.31359 83.3117 0.199596 83.115 0.121144C82.9183 0.0426908 82.7058 0.00145405 82.4907 0H62.8692ZM60.7062 3.11453L66.6267 9.78852C68.6867 12.1025 70.2463 14.7436 71.2246 17.5748L72.2196 20.4558C72.4922 21.2397 72.4283 22.0871 72.0403 22.8306L69.5683 27.5914C69.3058 28.143 68.8557 28.6054 68.2827 28.9122C67.7097 29.219 67.0433 29.3543 66.3795 29.2988L51.8936 28.053C51.7829 28.0522 51.6727 28.0654 51.566 28.0919C51.1274 27.5039 50.5773 26.99 49.9407 26.5736L45.1017 23.4702C46.2102 22.7557 47.0542 21.7577 47.5243 20.6059L49.0631 16.9019C49.4555 15.9627 49.6039 14.9552 49.4968 13.9564C49.3896 12.9577 49.0299 11.9943 48.4451 11.14L48.062 10.5838C47.8306 10.2463 47.5636 9.92972 47.2647 9.63836L54.0627 3.11453H60.7062ZM48.235 48.9204L45.6641 46.4454C45.8902 46.2188 46.0967 45.9771 46.2821 45.7224L50.9727 39.0095C51.4399 38.3266 51.7645 37.5727 51.9306 36.7848L52.7217 32.9751C52.8379 32.4086 52.8711 31.8308 52.8206 31.2565L66.1199 32.4189C66.3177 32.4189 66.5216 32.4189 66.7379 32.4189C67.2024 32.4144 67.6647 32.3621 68.116 32.2632L69.4386 41.2008C69.575 42.1146 69.9246 42.9921 70.4644 43.7758L71.9724 45.956C72.1572 46.2233 72.3638 46.478 72.5904 46.7179L67.8318 55.8835C67.5838 56.3896 67.1793 56.8208 66.6664 57.1255C66.1536 57.4303 65.5541 57.5957 64.9395 57.6021H62.1585C60.8373 57.6044 59.5316 57.3462 58.3331 56.8457L50.1323 53.4642V53.3085C50.1313 51.6838 49.4544 50.1184 48.235 48.9204ZM26.1971 41.401L22.9712 37.2576C23.8119 36.1708 24.2607 34.8776 24.2566 33.5535V30.3444C24.4111 30.3444 24.5594 30.3444 24.7078 30.3444C25.3154 30.3438 25.9195 30.2613 26.5 30.0997L34.0643 28.053C34.2744 27.9993 34.4808 27.9343 34.6823 27.8584L34.8862 27.786L41.6842 24.9774L48.1485 29.1653C48.6925 29.5265 49.111 30.0195 49.355 30.5868C49.5991 31.1541 49.6586 31.7722 49.5266 32.3689L48.7356 36.1786C48.6514 36.5727 48.4881 36.9496 48.2535 37.2909L43.6062 44.0094C43.3507 44.3888 43.0014 44.7101 42.5856 44.9484C42.1697 45.1866 41.6985 45.3354 41.2083 45.3831L27.4888 46.5733V45.1607C27.4945 43.8182 27.0438 42.5063 26.1971 41.401ZM27.4331 49.6823L41.4864 48.4532C41.9662 48.4082 42.4388 48.3149 42.8955 48.1751L45.936 51.1005C46.553 51.7079 46.8928 52.5023 46.8878 53.3252V56.5176C46.8859 56.9999 46.7678 57.4762 46.5417 57.9136L43.5567 63.6866C43.3088 64.1926 42.9043 64.6238 42.3914 64.9285C41.8785 65.2333 41.279 65.3987 40.6645 65.4051H31.8704C31.3139 65.397 30.7683 65.2652 30.2821 65.0214L23.719 62.5798C23.4762 61.4067 22.8699 60.3193 21.97 59.443L19.8194 57.3741L24.7634 54.0371C25.5126 53.5155 26.1365 52.8627 26.5975 52.118C27.0585 51.3734 27.347 50.5523 27.4455 49.7045L27.4331 49.6823ZM29.0956 7.38588V3.11453H49.4525L44.3787 8.03104C43.8249 7.88309 43.2507 7.80632 42.673 7.80301H29.077C29.077 7.66397 29.1079 7.53605 29.1079 7.40813L29.0956 7.38588ZM27.977 10.8786H42.6668C43.2088 10.8848 43.74 11.0152 44.2104 11.2575C44.6807 11.4999 45.0747 11.8461 45.3551 12.2635L45.7383 12.8196C46.032 13.2463 46.2126 13.7281 46.2662 14.2277C46.3198 14.7272 46.2449 15.2312 46.0473 15.7006L44.5085 19.4102C44.2016 20.1479 43.5844 20.7473 42.7904 21.0787L33.6688 24.8995L33.5143 24.9552C33.4137 24.9943 33.3105 25.0278 33.2052 25.0553L25.6348 27.1576C24.9374 27.3334 24.1945 27.2917 23.5269 27.0393C22.8592 26.7868 22.3061 26.3385 21.9577 25.7672L20.0542 23.5425C20.7043 22.5458 21.0478 21.4113 21.0492 20.2556V19.0765C21.0387 18.2537 21.3768 17.4583 21.9947 16.8518L27.2416 11.8018C27.5203 11.5223 27.7706 11.2208 27.9893 10.9009L27.977 10.8786ZM3.257 3.09229H25.8943V7.38588C25.8999 8.20784 25.5624 9.00174 24.9488 9.61055L19.702 14.6605C18.4804 15.8636 17.8055 17.4357 17.8109 19.0654V20.2667C17.8376 21.0655 17.512 21.8413 16.9053 22.4249C16.2986 23.0084 15.46 23.3522 14.5726 23.3812H11.05C10.4579 23.3798 9.87871 23.2254 9.38137 22.9363L3.23846 19.3879L3.257 3.09229ZM3.257 22.9752L7.71277 25.5892C8.70636 26.1644 9.86235 26.4713 11.0438 26.4735H14.5478C15.6504 26.4656 16.7295 26.1868 17.6687 25.6671L19.3312 27.6192C19.7915 28.2682 20.3826 28.8341 21.0739 29.2877C21.0489 29.3774 21.0303 29.4684 21.0183 29.5602V33.5479C21.0205 34.0095 20.9111 34.4659 20.6977 34.8856C20.4843 35.3053 20.1719 35.6782 19.7823 35.9784L14.8383 39.7825C14.2771 40.2198 13.5598 40.4607 12.8174 40.4611H3.23846L3.257 22.9752ZM3.257 43.5812H12.8545C14.3393 43.5759 15.773 43.0925 16.8962 42.2186L20.6042 39.3765L23.6324 43.2697C24.0451 43.8214 24.2608 44.4734 24.2504 45.1384V48.937C24.256 49.4295 24.1344 49.9164 23.8952 50.3594C23.6561 50.8024 23.3059 51.1894 22.8723 51.4898L10.0303 60.1716C9.4954 60.5326 8.84486 60.7278 8.17627 60.7278H3.23228L3.257 43.5812ZM19.702 77.1958L20.3756 77.841H3.23846V63.8256H8.18245C9.52027 63.8292 10.8226 63.4386 11.8904 62.7133L17.1373 59.1761L19.6896 61.6343C20.298 62.2372 20.6351 63.0223 20.6351 63.8367C20.6351 64.6511 20.298 65.4363 19.6896 66.0391C18.4681 67.2422 17.7932 68.8143 17.7985 70.444V72.8021C17.7872 74.4351 18.4602 76.0119 19.6834 77.2181L19.702 77.1958ZM41.2578 77.841H24.9302L21.97 74.9934C21.351 74.3876 21.0128 73.5917 21.0245 72.7687V70.4106C21.014 69.5879 21.3521 68.7924 21.97 68.1859C22.6771 67.4938 23.201 66.6667 23.5027 65.7666L28.9781 67.7966C29.8674 68.2265 30.8609 68.452 31.8704 68.4529H40.6645C41.2938 68.452 41.9191 68.3638 42.5185 68.1915L44.9905 72.9078C44.9885 72.9244 44.9885 72.9412 44.9905 72.9578L41.2578 77.841ZM45.2995 77.841L47.2091 75.3883L50.3918 77.841H45.2995ZM55.5707 77.841L48.7727 72.5963C48.4031 72.3082 48.1043 71.954 47.8951 71.5563L45.3304 66.6064C45.799 66.1448 46.1867 65.6216 46.4799 65.0547L49.4834 59.2817C49.8615 58.5072 50.0713 57.6746 50.1014 56.829L57.06 59.7545C58.6577 60.4203 60.3978 60.7639 62.1585 60.7611H64.921C65.6033 60.7607 66.2804 60.6554 66.9233 60.4497L73.4432 66.7232C73.6162 66.8781 73.7999 67.023 73.9932 67.157L67.0407 77.8632L55.5707 77.841ZM80.9086 77.841H70.8352L76.9658 68.3862C77.312 68.4473 77.6636 68.4808 78.0164 68.4863H80.8592L80.9086 77.841ZM80.9086 65.3829H78.0658C77.6355 65.3806 77.2103 65.2984 76.8168 65.1415C76.4233 64.9846 76.0701 64.7562 75.7792 64.4707L69.7599 58.6755C70.1587 58.2478 70.4933 57.7747 70.7549 57.2684L75.3652 48.3697C75.6012 48.4535 75.8426 48.5241 76.0882 48.5811L80.9086 49.5099V65.3606V65.3829ZM80.9086 46.3564L76.7248 45.55C76.3 45.4646 75.8987 45.3028 75.5451 45.0744C75.1915 44.8459 74.8927 44.5556 74.6668 44.2208L73.1589 42.0406C72.8914 41.6487 72.7168 41.2113 72.646 40.7558L71.1875 30.9061C71.1875 30.8505 71.1504 30.7949 71.1257 30.7393C71.6986 30.226 72.169 29.6277 72.5162 28.9707L74.9882 24.2043C75.1265 23.923 75.2421 23.633 75.3343 23.3367H80.8963L80.9086 46.3564ZM64.9642 3.11453H80.8592V20.2667H75.4702C75.4275 20.0074 75.3656 19.751 75.2848 19.4992L74.2899 16.6182C73.1864 13.3986 71.4191 10.3949 69.0801 7.76408L64.9642 3.13678" fill="white"/>
</svg>
