<svg width="109" height="108" viewBox="0 0 109 108" fill="none" xmlns="http://www.w3.org/2000/svg">
<path d="M24.9405 68.2281C21.7181 67.8692 20.3822 71.7425 12.1608 80.7959C6.18408 87.3643 3.36786 89.1926 2.91341 93.6617C2.81701 94.5894 2.45207 98.1783 4.81384 100.887C7.47169 103.921 11.8441 103.86 12.7048 103.826C18.2684 103.623 19.5904 99.404 29.5608 91.522C36.4464 86.1048 39.8341 84.8859 39.6276 82.1638C39.4623 80.0849 37.3897 79.7531 31.7366 74.4104C26.7859 69.711 26.7859 68.4244 24.9405 68.2281Z" stroke="white" stroke-width="4" stroke-miterlimit="10"/>
<path d="M28.2043 69.8329L67.0875 32.1224" stroke="white" stroke-width="4" stroke-miterlimit="10"/>
<path d="M37.7202 78.6562L76.3348 40.6818" stroke="white" stroke-width="4" stroke-miterlimit="10"/>
<path d="M57.3029 18.7488C57.5302 17.0627 60.3602 14.3947 65.9995 9.12652C70.8194 4.63704 73.2294 2.39568 74.7029 2.17222C79.0615 1.49507 81.6299 5.74079 92.6537 16.609C102.982 26.7662 106.859 29.1295 106.246 33.1923C106.012 34.7836 103.547 37.3026 98.6373 42.2864C93.5076 47.4734 90.9117 50.0872 89.3899 50.3106C84.6802 50.9878 82.3115 45.4284 71.4391 34.7972C61.5996 25.1681 56.7108 23.0419 57.3029 18.7488Z" stroke="white" stroke-width="4" stroke-miterlimit="10"/>
<path d="M53.7982 63.3797C55.5403 65.059 57.6473 67.1108 60.5599 70.0971C64.829 74.4579 66.9566 76.6384 67.6314 77.5864C74.4482 87.141 69.1187 94.5626 74.703 100.61C80.4249 106.778 92.4197 105.878 93.1978 103.819C93.5145 102.966 91.8206 102.147 87.7581 97.3999C82.3942 91.1565 82.6628 89.484 82.8624 88.8474C83.2412 87.6353 84.1019 87.852 87.2142 85.1028C90.1543 82.4957 90.2783 81.5139 91.5659 81.3581C93.3561 81.1414 94.4785 82.8953 97.5495 85.6377C100.62 88.3802 104.318 91.6779 105.702 90.9805C108.16 89.748 106.762 73.9433 98.0934 69.5892C91.6623 66.366 85.8715 71.7629 78.5107 67.4494C76.204 66.0951 76.1145 65.1809 71.4392 59.9601C68.9328 57.1567 66.6881 54.8882 64.4434 52.7484" stroke="white" stroke-width="4" stroke-miterlimit="10"/>
<path d="M55.0169 44.1623C44.9364 35.6302 39.4692 33.057 39.8686 28.3779C40.082 26.035 41.528 25.8793 42.0444 22.4935C42.9327 16.67 39.483 11.6929 38.7806 10.7314C32.1153 1.52215 16.9394 1.46797 15.9686 3.77706C15.7 4.40004 17.6005 6.48566 21.4013 10.7314C24.6169 14.2932 25.9596 15.4714 25.753 17.144C25.6911 17.6519 25.4845 18.2613 21.9453 21.4236C18.7435 24.2879 17.1253 25.7167 15.9686 25.7032C14.3367 25.7032 13.6068 24.4437 9.98495 20.8887C6.129 17.1372 4.24234 15.2615 3.45738 15.5392C1.24709 16.3247 0.751326 28.3305 7.80909 35.8672C8.60782 36.7204 14.1439 42.4694 20.8918 41.7517C25.0989 41.298 25.271 38.7925 28.5004 38.542C33.6233 38.1425 35.9506 44.2097 44.9157 54.306" stroke="white" stroke-width="4" stroke-miterlimit="10"/>
</svg>
