<svg width="126" height="126" viewBox="0 0 126 126" fill="none" xmlns="http://www.w3.org/2000/svg">
<path d="M3 103.921H41.1972V122.597H3V103.921ZM49.9859 103.921H88.1831V122.597H49.9859V103.921Z" stroke="white" stroke-width="5" stroke-miterlimit="2.6131" stroke-linecap="round" stroke-linejoin="round"/>
<path d="M96.6337 103.921H117.93V122.597H96.6337V103.921Z" stroke="white" stroke-width="5" stroke-miterlimit="2.6131" stroke-linecap="round" stroke-linejoin="round"/>
<path d="M117.93 78.1982H79.7324V96.5216H117.93V78.1982ZM71.2817 78.1982H33.0845V96.5216H71.2817V78.1982Z" stroke="white" stroke-width="5" stroke-miterlimit="2.6131" stroke-linecap="round" stroke-linejoin="round"/>
<path d="M24.6338 78.1982H3V96.5216H24.6338V78.1982Z" stroke="white" stroke-width="5" stroke-miterlimit="2.6131" stroke-linecap="round" stroke-linejoin="round"/>
<path d="M3 52.4751H41.5352V70.7985H3V52.4751Z" stroke="white" stroke-width="5" stroke-miterlimit="2.6131" stroke-linecap="round" stroke-linejoin="round"/>
<path d="M24.6338 26.7517H3V45.0751H24.6338V26.7517Z" stroke="white" stroke-width="5" stroke-miterlimit="2.6131" stroke-linecap="round" stroke-linejoin="round"/>
<path d="M30.3802 6.31417C42.8873 0.323833 60.1267 1.38095 76.014 10.895C83.7887 15.4759 90.2112 21.8186 94.6056 28.5137L80.7464 53.1798C72.9718 52.475 64.5211 49.656 56.7464 45.0752C41.1971 35.9135 31.3943 20.7615 30.3802 6.31417Z" stroke="white" stroke-width="5" stroke-miterlimit="2.6131" stroke-linecap="round" stroke-linejoin="round"/>
<path d="M93.9296 44.7226L73.986 32.7419" stroke="white" stroke-width="5" stroke-miterlimit="2.6131" stroke-linecap="round" stroke-linejoin="round"/>
<path d="M101.366 42.6086L120.296 54.2369C123 55.6464 123.676 59.1701 122.324 61.9891C120.972 64.8081 117.592 65.5128 114.887 64.1034L95.9578 52.4751C93.2535 51.0656 92.5775 47.5418 93.9296 44.7228C95.6197 42.2562 99 41.1991 101.366 42.6086Z" stroke="white" stroke-width="5" stroke-miterlimit="2.6131" stroke-linecap="round" stroke-linejoin="round"/>
</svg>
