<svg width="120" height="121" viewBox="0 0 120 121" fill="none" xmlns="http://www.w3.org/2000/svg">
<path d="M116.366 109.166H112.227C112.227 109.126 112.227 109.085 112.227 109.045V101.151C112.225 100.188 111.842 99.2653 111.161 98.5843C110.48 97.9033 109.556 97.5199 108.593 97.5181H108.337C108.337 97.4777 108.337 97.4372 108.337 97.3968V89.5033C108.335 88.5403 107.952 87.6171 107.271 86.9361C106.59 86.2552 105.667 85.8718 104.703 85.87H100.571V54.4443H106.476L107.461 55.2937C107.827 55.6125 108.253 55.8558 108.714 56.0098C109.175 56.1637 109.662 56.2252 110.147 56.1908C110.631 56.1563 111.104 56.0266 111.539 55.8091C111.973 55.5915 112.361 55.2904 112.679 54.9229L115.22 51.9907C115.861 51.2487 116.181 50.2832 116.112 49.3055C116.042 48.3277 115.588 47.4173 114.849 46.7733L62.4202 1.36043C61.7466 0.781934 60.888 0.463867 60 0.463867C59.112 0.463867 58.2534 0.781934 57.5798 1.36043L14.5147 38.6708C15.2787 39.5471 16.045 40.4347 16.8135 41.3335L17.0967 41.0908L17.4068 40.8211L59.8787 4.02305C59.9135 3.99634 59.9562 3.9821 60 3.9826C60.0438 3.9826 60.0864 3.9968 60.1214 4.02305L112.544 49.4224C112.578 49.4565 112.597 49.5025 112.597 49.5505C112.597 49.5985 112.578 49.6445 112.544 49.6786L110.002 52.6108C109.985 52.6286 109.965 52.6427 109.942 52.6523C109.92 52.662 109.895 52.667 109.871 52.667C109.846 52.667 109.822 52.662 109.799 52.6523C109.777 52.6427 109.756 52.6286 109.739 52.6108L62.4202 11.6334C61.746 11.0562 60.8876 10.739 60 10.739C59.1124 10.739 58.2541 11.0562 57.5798 11.6334L6.34387 56.0082C6.32564 56.0243 6.30416 56.0362 6.28088 56.0432C6.25761 56.0502 6.2331 56.052 6.20904 56.0487C6.18456 56.0484 6.16043 56.0429 6.13831 56.0324C6.11619 56.022 6.09662 56.0068 6.08095 55.988L3.53938 53.0557C3.5052 53.0205 3.48608 52.9734 3.48608 52.9243C3.48608 52.8752 3.5052 52.8281 3.53938 52.7928L11.0495 46.2879L11.4472 45.9442L9.14836 43.2883L8.81129 43.5781L1.30792 50.137C0.933202 50.461 0.628166 50.8577 0.41129 51.3031C0.201243 51.7241 0.0752988 52.1821 0.0405041 52.6513C0.00341999 53.1377 0.0636085 53.6267 0.217553 54.0896C0.371498 54.5526 0.616116 54.9802 0.937134 55.3476L3.47871 58.2866C4.11871 59.0114 5.01574 59.4587 5.97983 59.5337H6.24949C7.13689 59.535 7.99457 59.214 8.66298 58.6304L13.5371 54.4106H19.4158V101.367H19.1663C18.2026 101.367 17.2784 101.75 16.5969 102.431C15.9155 103.113 15.5326 104.037 15.5326 105V109.133H3.63376C3.15487 109.133 2.6807 109.227 2.23851 109.411C1.79633 109.595 1.39485 109.864 1.05717 110.204C0.719479 110.543 0.452246 110.946 0.270829 111.389C0.0894114 111.833 -0.00260916 112.307 5.62897e-05 112.786V116.831C0.0018383 117.794 0.385245 118.717 1.06631 119.398C1.74738 120.079 2.67059 120.462 3.63376 120.464H13.7461V116.945H3.63376C3.61846 116.946 3.60311 116.944 3.58876 116.938C3.5744 116.933 3.56137 116.925 3.55052 116.914C3.53968 116.903 3.53127 116.89 3.52586 116.876C3.52045 116.861 3.51816 116.846 3.51915 116.831V112.786C3.51915 112.756 3.53123 112.727 3.55272 112.705C3.57422 112.684 3.60337 112.671 3.63376 112.671H116.366C116.397 112.671 116.426 112.684 116.447 112.705C116.469 112.727 116.481 112.756 116.481 112.786V116.831C116.482 116.846 116.48 116.861 116.474 116.876C116.469 116.89 116.46 116.903 116.45 116.914C116.439 116.925 116.426 116.933 116.411 116.938C116.397 116.944 116.382 116.946 116.366 116.945H20.8045V120.464H116.366C117.329 120.462 118.253 120.079 118.934 119.398C119.615 118.717 119.998 117.794 120 116.831V112.786C119.996 111.825 119.612 110.904 118.931 110.226C118.25 109.547 117.328 109.166 116.366 109.166ZM104.838 89.5033V97.3968C104.838 97.429 104.825 97.4598 104.803 97.4826C104.78 97.5054 104.749 97.5181 104.717 97.5181H100.584V89.382H104.717C104.749 89.382 104.78 89.3948 104.803 89.4175C104.825 89.4403 104.838 89.4711 104.838 89.5033ZM69.8967 109.166H34.5776V105.034C34.5776 104.071 34.1947 103.146 33.5133 102.465C32.8318 101.784 31.9076 101.401 30.9439 101.401H30.6944V81.6233H89.3056V85.87H77.4068C76.4436 85.8718 75.5204 86.2552 74.8393 86.9361C74.1582 87.6171 73.7748 88.5403 73.7731 89.5033V97.3968C73.7731 97.4372 73.7731 97.4777 73.7731 97.5181H73.5169C72.5537 97.5199 71.6305 97.9033 70.9494 98.5843C70.2684 99.2653 69.885 100.188 69.8832 101.151V109.045C69.8832 109.085 69.8832 109.126 69.8832 109.166H69.8967ZM50.4742 54.4443V54.6937C50.476 55.6568 50.8594 56.5799 51.5404 57.2609C52.2215 57.9419 53.1447 58.3253 54.1079 58.3271H65.8922C66.8553 58.3253 67.7785 57.9419 68.4596 57.2609C69.1407 56.5799 69.5241 55.6568 69.5259 54.6937V54.4443H89.3056V70.319H30.6944V54.4443H50.4742ZM65.8922 39.3112H65.6427V19.0888L93.445 43.1737H69.5259V42.9243C69.5205 41.9642 69.1353 41.0452 68.4545 40.3682C67.7736 39.6912 66.8524 39.3112 65.8922 39.3112V39.3112ZM65.8922 42.8232C65.922 42.8248 65.9502 42.8374 65.9714 42.8585C65.9926 42.8797 66.0051 42.9079 66.0068 42.9378V54.7207C66.0068 54.7511 65.9947 54.7803 65.9732 54.8017C65.9517 54.8232 65.9226 54.8353 65.8922 54.8353H54.1079C54.0775 54.8353 54.0484 54.8232 54.0269 54.8017C54.0054 54.7803 53.9933 54.7511 53.9933 54.7207V42.9108C53.9949 42.8809 54.0075 42.8527 54.0287 42.8316C54.0498 42.8104 54.078 42.7978 54.1079 42.7962L65.8922 42.8232ZM54.1079 39.3112C53.1453 39.3112 52.2221 39.6931 51.5409 40.373C50.8596 41.0529 50.476 41.9753 50.4742 42.9378V43.1872H26.5551L54.3573 19.0888V39.3112H54.1079ZM97.0719 97.5451H85.0517V89.382H97.0719V97.5451ZM30.6944 73.8848H89.3056V78.1316H30.6944V73.8848ZM77.2922 97.4238V89.5033C77.2912 89.4877 77.2935 89.4721 77.2989 89.4574C77.3042 89.4427 77.3125 89.4292 77.3232 89.4179C77.334 89.4065 77.3469 89.3975 77.3613 89.3913C77.3757 89.3851 77.3911 89.3819 77.4068 89.382H81.5326V97.5181H77.4C77.385 97.5173 77.3702 97.5135 77.3566 97.5069C77.3431 97.5003 77.3309 97.4911 77.3209 97.4799C77.3109 97.4686 77.3032 97.4554 77.2982 97.4412C77.2933 97.4269 77.2912 97.4119 77.2922 97.3968V97.4238ZM100.955 101.057V109.193H81.1753V101.03L100.955 101.057ZM97.0719 85.897H92.818V54.4443H97.0719V85.897ZM69.5259 50.9526V46.7059H97.5034L102.411 50.9526H69.5259ZM60.1214 14.296L62.1439 16.0284V39.3112H57.8967V16.0284L59.9191 14.2893C59.9502 14.2719 59.9855 14.2633 60.0212 14.2645C60.0568 14.2657 60.0915 14.2766 60.1214 14.296ZM22.4967 46.652H50.4742V50.8987H17.5956L22.4967 46.652ZM22.9281 54.4174H27.1821V101.374H22.9281V54.4174ZM19.045 109.139V105.034C19.045 105.002 19.0578 104.971 19.0805 104.948C19.1033 104.926 19.1342 104.913 19.1663 104.913H30.9708C31.003 104.913 31.0339 104.926 31.0566 104.948C31.0794 104.971 31.0922 105.002 31.0922 105.034V109.166L19.045 109.139ZM73.409 109.018V101.151C73.4081 101.136 73.4104 101.12 73.4157 101.106C73.4211 101.091 73.4294 101.077 73.4401 101.066C73.4508 101.055 73.4638 101.046 73.4781 101.039C73.4925 101.033 73.508 101.03 73.5236 101.03H77.6562V109.166H73.5236C73.508 109.166 73.4925 109.163 73.4781 109.157C73.4638 109.151 73.4508 109.142 73.4401 109.13C73.4294 109.119 73.4211 109.106 73.4157 109.091C73.4104 109.076 73.4081 109.061 73.409 109.045V109.018ZM104.467 109.139V101.03H108.6C108.632 101.03 108.663 101.043 108.686 101.066C108.709 101.088 108.721 101.119 108.721 101.151V109.045C108.721 109.077 108.709 109.108 108.686 109.131C108.663 109.153 108.632 109.166 108.6 109.166L104.467 109.139Z" fill="white"/>
<path d="M59.5147 50.5616H60.4855C60.9521 50.5616 61.3997 50.3762 61.7297 50.0463C62.0596 49.7163 62.245 49.2688 62.245 48.8022C62.245 48.3356 62.0596 47.8881 61.7297 47.5581C61.3997 47.2282 60.9521 47.0428 60.4855 47.0428H59.5147C59.048 47.0428 58.6005 47.2282 58.2705 47.5581C57.9405 47.8881 57.7551 48.3356 57.7551 48.8022C57.7551 49.2688 57.9405 49.7163 58.2705 50.0463C58.6005 50.3762 59.048 50.5616 59.5147 50.5616Z" fill="white"/>
<path d="M14.7911 38.6374L9.08102 43.3761L11.299 46.1062L16.8136 41.3337L14.8383 38.3879L8.3327 44.0233" fill="white"/>
<path d="M14.0765 120.444L22.0383 120.457V116.925H12.7281V120.444H23.0899" fill="white"/>
</svg>
