<svg width="66" height="50" viewBox="0 0 66 50" fill="none" xmlns="http://www.w3.org/2000/svg">
<path d="M60.5 0H5.50004C2.46662 0 0 2.49154 0 5.5556V44.4445C0 47.5085 2.46662 50 5.50004 50H60.5001C63.5334 50 66 47.5085 66 44.4444V5.5556C66 2.49154 63.5334 0 60.5 0ZM5.50004 2.77773H60.5001C60.7027 2.77773 60.8813 2.85234 61.0714 2.89453C56.3097 7.29648 40.5208 21.8866 34.9955 26.9151C34.5631 27.3085 33.8662 27.7777 33.0001 27.7777C32.134 27.7777 31.4371 27.3085 31.0034 26.9138C25.4786 21.8861 9.68872 7.29518 4.92783 2.89479C5.11835 2.8526 5.29727 2.77773 5.50004 2.77773ZM2.74996 44.4444V5.5556C2.74996 5.28346 2.83117 5.03659 2.90387 4.78789C6.54831 8.15716 17.5652 18.3374 24.7086 24.899C17.5884 31.077 6.56868 41.6301 2.89523 45.1684C2.83039 44.9322 2.74996 44.7012 2.74996 44.4444ZM60.5 47.2223H5.50004C5.28039 47.2223 5.08509 47.1449 4.88 47.0954C8.67591 43.4402 19.7657 32.8264 26.7608 26.7818C27.6727 27.6173 28.5057 28.3792 29.1623 28.9768C30.2957 30.0104 31.6222 30.5556 33 30.5556C34.3778 30.5556 35.7043 30.0103 36.8363 28.9781C37.4932 28.3802 38.3268 27.6177 39.2392 26.7818C46.2347 32.8258 57.3229 43.4388 61.12 47.0954C60.9149 47.1449 60.7199 47.2223 60.5 47.2223ZM63.25 44.4444C63.25 44.701 63.1696 44.9322 63.1049 45.1684C59.43 41.6283 48.4116 31.0763 41.2915 24.8991C48.4352 18.3375 59.4504 8.1582 63.0961 4.78763C63.1688 5.03633 63.25 5.28333 63.25 5.55547V44.4444Z" fill="white"/>
</svg>
