<svg width="50" height="50" viewBox="0 0 50 50" fill="none" xmlns="http://www.w3.org/2000/svg">
<path d="M35.935 50.0002C34.321 50.0002 32.7206 49.7149 31.1558 49.1464C24.2617 46.642 17.8625 42.563 12.6498 37.3504C7.43709 32.1378 3.35814 25.7385 0.853833 18.8444C0.0490767 16.6289 -0.188415 14.3419 0.148194 12.0466C0.463515 9.89671 1.2963 7.80958 2.5566 6.01082C3.82247 4.20414 5.51011 2.70146 7.43699 1.66527C9.4918 0.560331 11.7346 0 14.1033 0C14.8399 0 15.4766 0.514728 15.631 1.23501L18.0835 12.6798C18.1945 13.1981 18.0352 13.7373 17.6605 14.1121L13.47 18.3026C17.4232 26.1622 23.8378 32.5768 31.6974 36.53L35.8879 32.3395C36.2627 31.9648 36.802 31.8057 37.3202 31.9165L48.765 34.369C49.4854 34.5234 50 35.1601 50 35.8967C50 38.2654 49.4397 40.5083 48.3346 42.5631C47.2984 44.49 45.7958 46.1776 43.9891 47.4435C42.1904 48.7038 40.1033 49.5366 37.9533 49.8519C37.2796 49.9508 36.606 50.0001 35.935 50.0002ZM12.8549 3.19324C9.73046 3.53815 6.95732 5.17579 5.11579 7.80411C3.04496 10.7596 2.56207 14.3947 3.79093 17.7776C8.6056 31.0316 18.9686 41.3946 32.2226 46.2093C35.6054 47.4381 39.2405 46.9553 42.1961 44.8844C44.8244 43.0429 46.462 40.2697 46.807 37.1453L37.4966 35.1503L33.1202 39.5267C32.6545 39.9924 31.9469 40.1161 31.3511 39.8361C22.0555 35.469 14.5312 27.9447 10.1641 18.6491C9.88417 18.0532 10.0078 17.3456 10.4735 16.88L14.8499 12.5036L12.8549 3.19324Z" fill="white"/>
</svg>
