<svg width="71" height="82" viewBox="0 0 71 82" fill="none" xmlns="http://www.w3.org/2000/svg">
<path d="M3.484 70.278C3.90867 70.278 4.29867 70.3517 4.654 70.499C5.018 70.6463 5.33 70.8803 5.59 71.201C5.85867 71.513 6.06667 71.916 6.214 72.41C6.37 72.904 6.448 73.4977 6.448 74.191C6.448 74.8843 6.36567 75.478 6.201 75.972C6.045 76.466 5.82833 76.8733 5.551 77.194C5.28233 77.506 4.966 77.7357 4.602 77.883C4.24667 78.0303 3.874 78.104 3.484 78.104C3.05933 78.104 2.665 78.0303 2.301 77.883C1.94567 77.7357 1.63367 77.506 1.365 77.194C1.105 76.8733 0.897 76.466 0.741 75.972C0.593667 75.478 0.52 74.8843 0.52 74.191C0.52 73.5237 0.598 72.9473 0.754 72.462C0.918667 71.968 1.13533 71.5607 1.404 71.24C1.68133 70.9107 1.99767 70.668 2.353 70.512C2.717 70.356 3.094 70.278 3.484 70.278ZM1.638 74.191C1.638 74.8237 1.69 75.3393 1.794 75.738C1.898 76.1367 2.03233 76.453 2.197 76.687C2.37033 76.9123 2.56967 77.0683 2.795 77.155C3.02033 77.233 3.25433 77.272 3.497 77.272C3.73967 77.272 3.96933 77.2243 4.186 77.129C4.41133 77.0337 4.60633 76.869 4.771 76.635C4.94433 76.401 5.07867 76.089 5.174 75.699C5.278 75.3003 5.33 74.7977 5.33 74.191C5.33 73.5583 5.278 73.0427 5.174 72.644C5.07 72.2453 4.93133 71.9333 4.758 71.708C4.58467 71.4827 4.38533 71.3267 4.16 71.24C3.94333 71.1533 3.71367 71.11 3.471 71.11C3.22833 71.11 2.99433 71.1577 2.769 71.253C2.55233 71.3483 2.35733 71.513 2.184 71.747C2.01933 71.981 1.885 72.2973 1.781 72.696C1.68567 73.086 1.638 73.5843 1.638 74.191ZM11.0199 70.278C11.2973 70.278 11.5529 70.2953 11.7869 70.33C12.0209 70.3647 12.2506 70.4253 12.4759 70.512L12.2289 71.37C12.0556 71.3007 11.8736 71.2443 11.6829 71.201C11.4923 71.1577 11.2843 71.136 11.0589 71.136C10.7036 71.136 10.3916 71.201 10.1229 71.331C9.85427 71.461 9.62894 71.643 9.44694 71.877C9.26494 72.111 9.12194 72.3927 9.01794 72.722C8.9226 73.0513 8.8706 73.4153 8.86194 73.814C9.08727 73.5367 9.36027 73.333 9.68094 73.203C10.0016 73.0643 10.3309 72.995 10.6689 72.995C11.0069 72.995 11.3233 73.0513 11.6179 73.164C11.9213 73.268 12.1813 73.4283 12.3979 73.645C12.6233 73.853 12.8009 74.113 12.9309 74.425C13.0609 74.7283 13.1259 75.0793 13.1259 75.478C13.1259 75.8767 13.0566 76.2363 12.9179 76.557C12.7879 76.8777 12.6016 77.155 12.3589 77.389C12.1249 77.6143 11.8433 77.792 11.5139 77.922C11.1933 78.0433 10.8423 78.104 10.4609 78.104C10.1143 78.104 9.77627 78.039 9.44694 77.909C9.12627 77.7703 8.84027 77.558 8.58894 77.272C8.3376 76.986 8.13394 76.6177 7.97794 76.167C7.8306 75.7077 7.75694 75.153 7.75694 74.503C7.75694 73.723 7.84794 73.0643 8.02994 72.527C8.21194 71.9897 8.45027 71.5563 8.74494 71.227C9.04827 70.889 9.39494 70.6463 9.78494 70.499C10.1836 70.3517 10.5953 70.278 11.0199 70.278ZM8.86194 75.218C8.86194 75.504 8.90094 75.7727 8.97894 76.024C9.05694 76.2753 9.16527 76.4963 9.30394 76.687C9.45127 76.869 9.6246 77.0163 9.82394 77.129C10.0319 77.233 10.2573 77.285 10.4999 77.285C10.9679 77.285 11.3449 77.116 11.6309 76.778C11.9169 76.44 12.0599 76.011 12.0599 75.491C12.0599 74.919 11.9126 74.503 11.6179 74.243C11.3319 73.9743 10.9463 73.84 10.4609 73.84C10.0969 73.84 9.78927 73.9267 9.53794 74.1C9.29527 74.2647 9.11327 74.4597 8.99194 74.685C8.93994 74.7803 8.90527 74.8713 8.88794 74.958C8.8706 75.0447 8.86194 75.1313 8.86194 75.218ZM21.8617 70.382V71.136L18.5727 78.221L17.6627 77.818L20.7957 71.266H17.1167V70.382H21.8617ZM25.7867 70.382H26.7487V75.179H27.9447V76.063H26.7487V78H25.7607V76.063H22.1337V75.4L25.7867 70.382ZM23.3297 75.179H25.7607V73.073L25.8127 71.552H25.7867L25.2017 72.579L23.3297 75.179ZM33.7782 70.382H34.5582V78H33.5182V71.5L32.1532 72.124L31.9062 71.24L33.7782 70.382ZM38.1834 70.382H38.9634V78H37.9234V71.5L36.5584 72.124L36.3114 71.24L38.1834 70.382ZM46.7445 70.278C47.0219 70.278 47.2775 70.2953 47.5115 70.33C47.7455 70.3647 47.9752 70.4253 48.2005 70.512L47.9535 71.37C47.7802 71.3007 47.5982 71.2443 47.4075 71.201C47.2169 71.1577 47.0089 71.136 46.7835 71.136C46.4282 71.136 46.1162 71.201 45.8475 71.331C45.5789 71.461 45.3535 71.643 45.1715 71.877C44.9895 72.111 44.8465 72.3927 44.7425 72.722C44.6472 73.0513 44.5952 73.4153 44.5865 73.814C44.8119 73.5367 45.0849 73.333 45.4055 73.203C45.7262 73.0643 46.0555 72.995 46.3935 72.995C46.7315 72.995 47.0479 73.0513 47.3425 73.164C47.6459 73.268 47.9059 73.4283 48.1225 73.645C48.3479 73.853 48.5255 74.113 48.6555 74.425C48.7855 74.7283 48.8505 75.0793 48.8505 75.478C48.8505 75.8767 48.7812 76.2363 48.6425 76.557C48.5125 76.8777 48.3262 77.155 48.0835 77.389C47.8495 77.6143 47.5679 77.792 47.2385 77.922C46.9179 78.0433 46.5669 78.104 46.1855 78.104C45.8389 78.104 45.5009 78.039 45.1715 77.909C44.8509 77.7703 44.5649 77.558 44.3135 77.272C44.0622 76.986 43.8585 76.6177 43.7025 76.167C43.5552 75.7077 43.4815 75.153 43.4815 74.503C43.4815 73.723 43.5725 73.0643 43.7545 72.527C43.9365 71.9897 44.1749 71.5563 44.4695 71.227C44.7729 70.889 45.1195 70.6463 45.5095 70.499C45.9082 70.3517 46.3199 70.278 46.7445 70.278ZM44.5865 75.218C44.5865 75.504 44.6255 75.7727 44.7035 76.024C44.7815 76.2753 44.8899 76.4963 45.0285 76.687C45.1759 76.869 45.3492 77.0163 45.5485 77.129C45.7565 77.233 45.9819 77.285 46.2245 77.285C46.6925 77.285 47.0695 77.116 47.3555 76.778C47.6415 76.44 47.7845 76.011 47.7845 75.491C47.7845 74.919 47.6372 74.503 47.3425 74.243C47.0565 73.9743 46.6709 73.84 46.1855 73.84C45.8215 73.84 45.5139 73.9267 45.2625 74.1C45.0199 74.2647 44.8379 74.4597 44.7165 74.685C44.6645 74.7803 44.6299 74.8713 44.6125 74.958C44.5952 75.0447 44.5865 75.1313 44.5865 75.218ZM49.9075 70.837C50.2282 70.6377 50.5575 70.4947 50.8955 70.408C51.2335 70.3213 51.5542 70.278 51.8575 70.278C52.1955 70.278 52.5075 70.3257 52.7935 70.421C53.0795 70.5163 53.3222 70.6507 53.5215 70.824C53.7295 70.9973 53.8898 71.2053 54.0025 71.448C54.1152 71.682 54.1715 71.9377 54.1715 72.215C54.1715 72.6917 54.0458 73.0903 53.7945 73.411C53.5518 73.723 53.2528 73.944 52.8975 74.074C53.1142 74.126 53.3178 74.2083 53.5085 74.321C53.6992 74.425 53.8595 74.555 53.9895 74.711C54.1282 74.867 54.2365 75.0447 54.3145 75.244C54.3925 75.4433 54.4315 75.6557 54.4315 75.881C54.4315 76.2883 54.3492 76.635 54.1845 76.921C54.0285 77.207 53.8205 77.4367 53.5605 77.61C53.3005 77.7833 53.0058 77.909 52.6765 77.987C52.3558 78.065 52.0265 78.104 51.6885 78.104C51.3592 78.104 51.0212 78.0737 50.6745 78.013C50.3278 77.9523 50.0288 77.8613 49.7775 77.74L50.0245 76.908C50.2932 77.012 50.5445 77.0943 50.7785 77.155C51.0125 77.2157 51.3115 77.246 51.6755 77.246C51.8748 77.246 52.0742 77.2243 52.2735 77.181C52.4728 77.129 52.6505 77.0467 52.8065 76.934C52.9625 76.8213 53.0882 76.6783 53.1835 76.505C53.2788 76.3317 53.3265 76.115 53.3265 75.855C53.3265 75.3957 53.1662 75.062 52.8455 74.854C52.5335 74.646 52.1348 74.542 51.6495 74.542H50.7395V73.723H51.4415C51.9095 73.723 52.2995 73.6103 52.6115 73.385C52.9235 73.1597 53.0795 72.813 53.0795 72.345C53.0795 72.1803 53.0448 72.0243 52.9755 71.877C52.9062 71.721 52.8108 71.591 52.6895 71.487C52.5768 71.3743 52.4425 71.2877 52.2865 71.227C52.1305 71.1577 51.9615 71.123 51.7795 71.123C51.5195 71.123 51.2768 71.1577 51.0515 71.227C50.8262 71.2877 50.5575 71.4047 50.2455 71.578L49.9075 70.837ZM61.9811 70.382H62.9431V75.179H64.1391V76.063H62.9431V78H61.9551V76.063H58.3281V75.4L61.9811 70.382ZM59.5241 75.179H61.9551V73.073L62.0071 71.552H61.9811L61.3961 72.579L59.5241 75.179ZM69.5897 70.356V71.24H66.7687L66.5477 73.268C66.643 73.2507 66.747 73.2377 66.8597 73.229C66.981 73.2203 67.1154 73.216 67.2627 73.216C67.5574 73.216 67.8607 73.255 68.1727 73.333C68.4847 73.411 68.762 73.541 69.0047 73.723C69.256 73.905 69.4597 74.1433 69.6157 74.438C69.7804 74.7327 69.8627 75.0923 69.8627 75.517C69.8627 75.881 69.7977 76.219 69.6677 76.531C69.5464 76.843 69.3557 77.116 69.0957 77.35C68.8444 77.584 68.5324 77.7703 68.1597 77.909C67.787 78.039 67.3537 78.104 66.8597 78.104C66.5737 78.104 66.279 78.0737 65.9757 78.013C65.681 77.9523 65.421 77.8613 65.1957 77.74L65.4297 76.882C65.629 76.9773 65.8457 77.0597 66.0797 77.129C66.3224 77.1897 66.5737 77.22 66.8337 77.22C67.449 77.22 67.9214 77.0813 68.2507 76.804C68.5887 76.5267 68.7577 76.1107 68.7577 75.556C68.7577 75.0273 68.58 74.633 68.2247 74.373C67.878 74.113 67.4404 73.983 66.9117 73.983C66.6864 73.983 66.461 74.0003 66.2357 74.035C66.0104 74.061 65.7807 74.0957 65.5467 74.139L65.9237 70.382L69.5897 70.356Z" fill="white"/>
<path d="M45.935 50.0002C44.321 50.0002 42.7206 49.7149 41.1558 49.1464C34.2617 46.642 27.8625 42.563 22.6498 37.3504C17.4371 32.1378 13.3581 25.7385 10.8538 18.8444C10.0491 16.6289 9.81159 14.3419 10.1482 12.0466C10.4635 9.89671 11.2963 7.80958 12.5566 6.01082C13.8225 4.20414 15.5101 2.70146 17.437 1.66527C19.4918 0.560331 21.7346 0 24.1033 0C24.8399 0 25.4766 0.514728 25.631 1.23501L28.0835 12.6798C28.1945 13.1981 28.0352 13.7373 27.6605 14.1121L23.47 18.3026C27.4232 26.1622 33.8378 32.5768 41.6974 36.53L45.8879 32.3395C46.2627 31.9648 46.802 31.8057 47.3202 31.9165L58.765 34.369C59.4854 34.5234 60 35.1601 60 35.8967C60 38.2654 59.4397 40.5083 58.3346 42.5631C57.2984 44.49 55.7958 46.1776 53.9891 47.4435C52.1904 48.7038 50.1033 49.5366 47.9533 49.8519C47.2796 49.9508 46.606 50.0001 45.935 50.0002ZM22.8549 3.19324C19.7305 3.53815 16.9573 5.17579 15.1158 7.80411C13.045 10.7596 12.5621 14.3947 13.7909 17.7776C18.6056 31.0316 28.9686 41.3946 42.2226 46.2093C45.6054 47.4381 49.2405 46.9553 52.1961 44.8844C54.8244 43.0429 56.462 40.2697 56.807 37.1453L47.4966 35.1503L43.1202 39.5267C42.6545 39.9924 41.9469 40.1161 41.3511 39.8361C32.0555 35.469 24.5312 27.9447 20.1641 18.6491C19.8842 18.0532 20.0078 17.3456 20.4735 16.88L24.8499 12.5036L22.8549 3.19324Z" fill="white"/>
</svg>
